<svg width="154" height="29" viewBox="0 0 154 29" fill="none" xmlns="http://www.w3.org/2000/svg">
<path d="M111.324 0.0348972C111.613 0.0213016 111.768 0.00770601 111.923 0.00770601C114.391 0.00600656 116.86 -0.00249068 119.327 0.0196021C119.603 0.0221513 119.939 0.139413 120.143 0.311907C127.868 6.83948 135.579 13.3815 143.294 19.9193C146.705 22.81 150.118 25.6974 153.528 28.5882C153.61 28.6561 153.68 28.7377 153.8 28.8584C153.604 28.8677 153.477 28.8788 153.351 28.8788C150.824 28.8788 148.297 28.8856 145.771 28.8677C145.518 28.8605 145.273 28.7727 145.073 28.617C139.813 24.1755 134.564 19.7204 129.31 15.2704C124.024 10.7932 118.734 6.31945 113.447 1.84311C112.773 1.27379 112.104 0.699381 111.324 0.0348972ZM42.5779 28.8796H40.0483C38.7406 28.8796 37.432 28.8635 36.126 28.8881C35.713 28.8966 35.47 28.7776 35.2321 28.4547C30.5501 22.0563 25.8554 15.6664 21.1624 9.27649C20.1308 7.8719 19.1009 6.46475 18.0583 5.06696C17.8714 4.81714 17.8595 4.63445 18.0558 4.37528C19.0627 3.03867 20.0484 1.68591 21.0425 0.340798C21.1088 0.251577 21.1836 0.169153 21.2966 0.0331977L42.5779 28.8796ZM106.677 28.8796H106.125C104.128 28.8796 102.13 28.8711 100.132 28.8864C99.7839 28.889 99.5757 28.7861 99.3811 28.5185C96.5192 24.6038 93.6472 20.6959 90.7776 16.7863C87.9234 12.8997 85.0743 9.01138 82.2073 5.13324C81.9762 4.82139 81.9643 4.61746 82.2014 4.30646C83.1811 3.01828 84.1303 1.71055 85.0904 0.410475C85.1729 0.298311 85.2604 0.189547 85.3878 0.023001L106.677 28.8796ZM48.554 28.8839V24.4559C49.0443 24.4559 49.5219 24.461 49.9994 24.4542C51.0837 24.4373 52.122 24.2282 53.0899 23.7575C54.921 22.8661 55.8795 21.374 56.2933 19.5428C56.4318 18.9302 56.4871 18.2887 56.4888 17.6599C56.5023 11.9667 56.4964 6.27357 56.4973 0.58042C56.4973 0.198044 56.6952 0.0068563 57.0921 0.00600658C58.5765 0.00600658 60.0593 0.0119546 61.5429 5.84923e-05C61.8751 -0.00249068 62.0035 0.0773834 62.0018 0.416423C61.9916 6.24722 62.0391 12.0789 61.9763 17.9088C61.9431 21.0273 60.8912 23.8501 58.4559 26.0645C56.465 27.8744 54.0169 28.7887 51.24 28.8771C50.3631 28.9051 49.4828 28.8813 48.5549 28.8813V28.883L48.554 28.8839ZM83.3094 12.2684L81.689 14.4776C78.2451 19.1681 74.7994 23.856 71.3649 28.5508C71.1847 28.7972 71.0003 28.8881 70.6868 28.8856C68.6593 28.8737 66.6328 28.8796 64.6053 28.8796H64.1252C64.2408 28.7054 64.3156 28.5822 64.4014 28.4658C68.3229 23.1491 72.2435 17.8324 76.1751 12.5224C76.2729 12.3907 76.4861 12.2539 76.6467 12.2522C78.7753 12.2344 80.9056 12.2403 83.0358 12.2412C83.1029 12.2412 83.1701 12.2539 83.3094 12.2675V12.2684ZM0 28.8796C0.988228 27.5353 1.90933 26.2786 2.83468 25.0261C5.89793 20.8752 8.96543 16.7269 12.0202 12.5709C12.1986 12.3278 12.3771 12.231 12.694 12.2335C14.837 12.2471 16.9809 12.2403 19.2148 12.2403C18.948 12.6176 18.722 12.9456 18.4866 13.2668C14.7512 18.3524 11.0116 23.4363 7.28298 28.5261C7.09689 28.7802 6.9125 28.889 6.57431 28.8864C4.56216 28.8694 2.55002 28.8779 0.537875 28.8779H0V28.8796ZM135.622 8.29591C136.56 7.49802 137.427 6.75791 138.297 6.02205C140.575 4.09488 142.85 2.16515 145.14 0.249027C145.297 0.11732 145.547 0.0196022 145.755 0.017053C148.281 0.00175797 150.806 0.00685627 153.332 0.00855572C153.457 0.00855572 153.583 0.0280994 153.8 0.0459436C153.661 0.187847 153.586 0.277918 153.496 0.354393C150.426 2.95795 147.355 5.56235 144.277 8.1591C144.146 8.26754 143.983 8.33124 143.813 8.34094C141.17 8.35114 138.527 8.34774 135.883 8.34604C135.83 8.34604 135.777 8.32565 135.622 8.29506V8.29591ZM129.542 20.6373C128.934 21.159 128.389 21.6332 127.836 22.0997C125.263 24.2767 122.689 26.4545 120.107 28.6238C119.958 28.7496 119.734 28.8677 119.544 28.8686C116.899 28.8847 114.256 28.8788 111.61 28.8771C111.569 28.8771 111.527 28.8643 111.416 28.8465C111.537 28.7258 111.624 28.6289 111.723 28.5448C114.783 25.9472 117.845 23.3513 120.911 20.7605C121.03 20.6616 121.177 20.6035 121.332 20.5948C123.992 20.5863 126.651 20.5889 129.31 20.5906C129.352 20.5906 129.393 20.6059 129.542 20.6373Z" fill="black"/>
</svg>
