<svg width="157" height="57" viewBox="0 0 157 57" fill="none" xmlns="http://www.w3.org/2000/svg">
<g clip-path="url(#clip0_42_1283)">
<path d="M29.4896 35.0681C29.4896 37.664 30.7387 38.9258 33.3066 38.9258H34.4163C36.9842 38.9258 38.2324 37.664 38.2324 35.0681V30.0887H44.1304V34.8582C44.1304 41.3815 40.8691 44.7481 34.3467 44.7481H33.0976C26.6448 44.7481 23.3138 41.4512 23.3138 35.6306V10.6598C23.3147 3.3666 26.5759 0 33.0993 0H34.3484C40.8011 0 44.1321 3.29693 44.1321 9.88908V24.8289H29.4913V35.0681H29.4896ZM29.4896 18.9369H38.1636V9.6792C38.1636 7.08414 36.9145 5.82146 34.3475 5.82146H33.3754C30.8084 5.82146 29.5593 7.08414 29.5593 9.6792V18.9369H29.4896ZM48.1555 0.560817H54.2616V3.3666C55.7189 1.82351 58.2171 0.0696773 61.6865 0.0696773C66.8902 0.0696773 69.4572 3.57734 69.4572 8.69692V36.0504C69.4572 41.2405 66.8911 44.6776 61.6865 44.6776C58.1474 44.6776 55.7189 42.9952 54.2616 41.5217V55.6186H48.1555V0.560817ZM54.2616 36.612C55.9271 38.0846 57.8695 38.8562 59.8817 38.8562C62.1029 38.8562 63.4208 37.8042 63.4208 35.2788V9.46932C63.4208 6.94479 62.1717 5.89198 59.8817 5.89198C57.8695 5.89198 55.9271 6.73406 54.2616 8.13695V36.612ZM73.1357 29.0367C73.1357 23.6368 74.87 21.4623 79.5188 19.8487L87.7067 17.0438V9.67835C87.7067 7.08329 86.4576 5.6804 83.8906 5.6804H82.9194C80.3515 5.6804 79.1024 7.08244 79.1024 9.67835V15.8499H73.2053V9.88823C73.2045 3.3666 76.4649 0 82.9874 0H84.1668C90.6204 0 93.9513 3.29693 93.9513 9.88908V44.1865H87.8452V41.4512C86.1798 43.0648 83.8898 44.6776 80.4203 44.6776C75.5633 44.6776 73.2733 41.8718 73.2733 36.9621V29.0367H73.1357ZM87.7067 36.8219V22.4446L82.1555 24.5485C79.9352 25.4603 79.1721 26.5819 79.1721 29.1073V35.77C79.1721 37.8747 80.213 38.9267 82.1555 38.9267C84.0291 38.8562 85.6946 38.2248 87.7067 36.8219ZM118.377 44.1865H112.271V9.04785C112.271 6.87341 111.23 5.89198 109.356 5.89198C107.691 5.89198 105.887 6.52248 103.736 8.06557V44.1873H97.6298V0.560817H103.736V3.3666C105.47 1.6833 107.83 0.0696773 111.16 0.0696773C114.283 0.0696773 116.365 1.33237 117.474 3.64701C119.626 1.75383 122.193 0.0696773 125.732 0.0696773C130.45 0.0696773 132.879 3.01567 132.879 7.78517V44.257H126.773V9.04785C126.773 6.87341 125.732 5.89198 123.858 5.89198C122.193 5.89198 120.389 6.52248 118.238 8.06557V44.1873L118.377 44.1865Z" fill="#474747"/>
<path d="M15.6128 4.55871V12.6243L5.41274 22.4437L15.6128 32.1229V40.3287L0 25.4602V19.5682L15.6128 4.55871ZM156.263 19.5691V25.4602L140.65 40.3278V32.122L150.851 22.4437L140.65 12.5538V4.55786L156.263 19.5674V19.5691Z" fill="#46ADC9"/>
</g>
<defs>
<clipPath id="clip0_42_1283">
<rect width="156.349" height="56.0817" fill="white"/>
</clipPath>
</defs>
</svg>
