<svg width="157" height="41" viewBox="0 0 157 41" fill="none" xmlns="http://www.w3.org/2000/svg">
<g clip-path="url(#clip0_42_1308)">
<path d="M26.0789 6.93401C19.7553 3.59459 10.9887 6.91276 7.58299 13.7734C4.20534 20.5797 6.49279 28.7116 12.9464 32.8242C19.1996 36.8111 27.3866 35.3853 32.2751 29.4551C32.7357 28.8968 33.0679 27.997 33.6355 27.8177C34.6671 27.4931 36.1507 27.1464 36.8492 27.6452C37.5323 28.1304 37.9929 29.8995 37.6309 30.6821C36.912 32.2388 35.7182 33.668 34.4495 34.8644C27.1062 41.7982 15.7191 42.1278 7.97216 35.726C0.38838 29.4576 -1.46657 18.2999 3.68616 9.94543C9.00797 1.31224 19.7544 -1.99744 29.0147 2.14242C33.0602 3.95063 33.4341 5.16573 31.0914 8.88072C28.2619 13.3724 25.4153 17.8538 22.6112 22.3607C21.5992 23.9846 20.2566 25.0739 18.4459 23.9633C16.5765 22.817 17.1118 21.1184 18.1128 19.5405C20.7749 15.348 23.4193 11.1452 26.0789 6.93486V6.93401ZM129.676 40.3035C113.506 40.0698 109.611 24.96 113.556 13.9816C115.935 7.36567 120.35 2.70663 127.494 1.28165C132.857 0.212695 137.529 2.96665 139.192 8.19839C140.272 11.5939 141.985 14.3869 144.624 16.8316C150.207 22.0072 149.506 30.3362 143.208 35.9385C139.513 39.2243 135.043 40.2661 129.676 40.3035ZM129.666 35.3071C133.81 35.3776 136.959 34.5993 139.627 32.3926C144.318 28.5076 144.292 23.773 140.206 19.385C138.027 17.0483 136.27 14.1082 135.051 11.1393C132.959 6.04859 129.408 4.58452 124.683 7.56025C119.716 10.6898 117.411 15.4168 117.133 21.1176C116.706 29.8935 121.839 35.2927 129.666 35.3071ZM75.1309 29.6836C80.0491 21.7166 84.8126 14.0037 89.577 6.29077C89.9152 5.74354 90.2483 5.19122 90.5891 4.6474C92.0022 2.39563 93.4968 1.76514 95.0493 2.76016C96.5779 3.73905 96.6323 5.27789 95.192 7.62313C92.6242 11.8021 90.0444 15.9751 87.4672 20.1481C84.296 25.2804 81.1367 30.417 77.9452 35.5348C76.1353 38.4366 74.0781 38.4604 72.2733 35.5527C66.417 26.1259 60.6006 16.6727 54.7681 7.22971C53.7833 5.63563 53.4171 4.0492 55.1947 2.76951C56.6273 1.73795 58.207 2.38714 59.4943 4.46386C64.155 11.9831 68.7988 19.5125 73.451 27.0359C73.9506 27.8431 74.469 28.6393 75.1309 29.6794V29.6836ZM152.208 9.8562C149.883 9.89104 148.052 8.12022 148.025 5.80642C147.998 3.56315 149.886 1.60624 152.108 1.5731C154.339 1.53911 156.247 3.4306 156.277 5.70446C156.306 8.03355 154.555 9.82222 152.206 9.8579L152.208 9.8562Z" fill="black"/>
</g>
<defs>
<clipPath id="clip0_42_1308">
<rect width="156.349" height="40.7867" fill="white"/>
</clipPath>
</defs>
</svg>
