<svg width="157" height="27" viewBox="0 0 157 27" fill="none" xmlns="http://www.w3.org/2000/svg">
<path d="M9.82535 12.106H16.7064C15.7938 15.0766 12.9005 17.3293 9.46082 17.3293C5.34306 17.3293 1.90253 14.136 1.90253 10.1499C1.90253 6.23867 5.26489 2.97063 9.46082 2.97063C12.5878 2.97063 15.2729 4.77799 16.4201 7.40194H18.4781C17.2536 3.78722 13.6568 1.16327 9.46082 1.16327C4.27411 1.16327 0 5.22325 0 10.1499C0 15.0766 4.27411 19.1366 9.46082 19.1366C12.4315 19.1366 15.1948 17.6759 16.7846 15.646V18.7653H18.5308V10.2749H9.82535V12.106ZM21.7368 1.73259H23.6402V18.716H21.7368V1.73259ZM77.4064 1.73259H79.3098V18.716H77.4064V1.73259ZM33.4901 17.5527C30.5977 17.5527 28.2261 15.1514 28.2261 12.4773C28.2261 9.72933 30.5968 7.40194 33.4901 7.40194C36.3835 7.40194 38.755 9.72933 38.755 12.4773C38.6769 15.1514 36.3308 17.5527 33.4901 17.5527ZM33.4901 5.56994C29.5287 5.56994 26.3236 8.61535 26.3236 12.3779C26.3236 16.1413 29.5287 19.1868 33.4901 19.1868C37.4516 19.1868 40.6576 16.1413 40.6576 12.3788C40.6057 8.6145 37.3997 5.56994 33.4901 5.56994ZM49.9884 17.5527C47.0951 17.5527 44.7235 15.1514 44.7235 12.4773C44.7235 9.72933 47.0942 7.40194 49.9884 7.40194C52.8808 7.40194 55.2524 9.72933 55.2524 12.4773C55.1742 15.1514 52.8817 17.5527 49.9884 17.5527ZM50.0657 5.49516C47.9286 5.49516 46.0261 6.36188 44.7235 7.8234V1.73259H42.8201V18.716H44.7235V17.0327C46.0261 18.4186 47.9286 19.2853 50.0666 19.2853C54.028 19.2853 57.2331 16.1668 57.2331 12.4026C57.2331 8.54142 54.028 5.49516 50.0657 5.49516ZM66.9285 17.5527C64.036 17.5527 61.6636 15.1514 61.6636 12.4773C61.6636 9.72933 64.036 7.40194 66.9285 7.40194C69.8218 7.40194 72.1933 9.72933 72.1933 12.4773C72.1933 15.1514 69.8481 17.5527 66.9285 17.5527ZM72.1933 7.8234C70.8899 6.36188 68.9092 5.49516 66.7721 5.49516C62.7325 5.49516 59.5265 8.61535 59.5265 12.3779C59.5265 16.2153 62.8107 19.2607 66.7721 19.2607C68.9092 19.2607 70.8899 18.394 72.1933 16.9333V18.6667H74.0959V6.26331H72.1925L72.1933 7.8234ZM128.931 0H132.293V2.97063H128.931V0ZM86.0328 1.73344H82.9823V18.6905H92.9912V16.0164H86.0328V1.73344ZM128.931 5.37195H132.293V18.716H128.931V5.37195ZM101.514 16.3886C99.2978 16.3886 97.4735 14.5813 97.4735 12.2547C97.4735 10.0012 99.2978 8.11996 101.514 8.11996C103.729 8.11996 105.553 9.92732 105.553 12.2547C105.579 14.5821 103.729 16.3886 101.514 16.3886ZM101.514 5.29802C97.4735 5.29802 94.1901 8.41651 94.1901 12.2547C94.1901 16.0921 97.4735 19.2114 101.514 19.2114C105.553 19.2114 108.837 16.0921 108.837 12.2547C108.837 8.41736 105.579 5.29802 101.514 5.29802ZM146.185 14.136C145.858 14.8122 145.347 15.3824 144.711 15.7809C144.075 16.1795 143.339 16.3901 142.588 16.3886C140.373 16.3886 138.548 14.5073 138.548 12.2547C138.548 9.77862 140.373 8.11996 142.588 8.11996C144.126 8.11996 145.403 8.98667 146.107 10.2247H149.625C148.713 7.40194 145.872 5.29802 142.588 5.29802C138.548 5.29802 135.265 8.41651 135.265 12.2547C135.265 16.0921 138.548 19.2114 142.588 19.2114C145.95 19.2114 148.843 17.0327 149.677 14.0621H146.158L146.185 14.136ZM117.802 23.3453C116.265 23.3453 114.91 22.6273 113.997 21.464L111.027 22.8508C112.407 24.9547 114.779 26.3414 117.829 26.3414C121.712 26.3414 124.918 23.3699 125.231 19.8054H121.946C121.608 21.8362 119.94 23.3453 117.802 23.3453ZM117.933 16.4625C115.718 16.4625 113.894 14.656 113.894 12.3286C113.894 10.076 115.718 8.19473 117.933 8.19473C120.148 8.19473 121.973 10.0021 121.973 12.3286C121.999 14.656 120.227 16.4634 117.933 16.4634V16.4625ZM122.285 6.73321C121.06 5.94127 119.601 5.42123 118.011 5.42123C113.972 5.42123 110.688 8.54142 110.688 12.3788C110.688 16.2153 113.972 19.3355 118.011 19.3355C122.051 19.3355 125.335 16.2153 125.335 12.4527V5.34646H122.285V6.73321ZM152.388 3.04541C152.388 1.88129 153.221 1.16327 154.368 1.16327C155.515 1.16327 156.349 1.95521 156.349 3.04456C156.349 4.1339 155.515 4.9267 154.368 4.9267C153.221 4.9267 152.388 4.13475 152.388 3.04541ZM156.036 3.04541C156.036 2.02999 155.358 1.3859 154.368 1.3859C153.456 1.3859 152.7 2.02999 152.7 3.04456C152.7 4.05998 153.378 4.70322 154.368 4.70322C155.28 4.62929 156.036 3.9869 156.036 3.04541ZM153.534 2.02999H154.447C154.837 2.02999 155.124 2.25262 155.124 2.5993C155.124 2.82193 154.967 3.04456 154.733 3.04456C154.967 3.11933 155.046 3.19326 155.046 3.49066C155.046 3.78807 155.046 3.93592 155.124 4.01069H154.733C154.655 4.01069 154.655 3.78722 154.655 3.56459C154.655 3.34196 154.498 3.19326 154.264 3.19326H153.873V3.98605H153.482V2.02999H153.534ZM154.056 2.89671H154.525C154.759 2.89671 154.916 2.74801 154.916 2.5993C154.916 2.4506 154.837 2.3019 154.603 2.3019H154.134V2.87122H154.056V2.89671Z" fill="black"/>
</svg>
