<svg width="155" height="28" viewBox="0 0 155 28" fill="none" xmlns="http://www.w3.org/2000/svg">
<g clip-path="url(#clip0_42_1306)">
<path d="M76.1377 12.4246C76.1377 10.4023 75.5735 9.52029 74.8564 8.79463C74.2411 8.19812 73.2164 8.01713 71.6265 7.9653C71.0623 7.9398 57.7081 7.9653 57.0929 7.9653C53.8631 7.9653 53.3507 8.48363 52.7355 8.95098C51.992 9.52029 51.3505 10.687 51.3505 12.4501V22.38C51.3759 24.3514 52.0175 25.6208 53.2734 26.191C53.8113 26.4502 54.9643 26.6839 58.8357 26.6839H75.2659V22.9765H58.093C57.477 22.9765 56.9901 22.4837 57.0156 21.8617V19.2428H76.1122L76.1377 12.4246ZM70.3962 15.4582L56.9901 15.4318V12.8657C56.9826 12.7192 57.0049 12.5728 57.0555 12.4353C57.1061 12.2977 57.1841 12.1718 57.2847 12.0652C57.3853 11.9586 57.5064 11.8734 57.6408 11.8148C57.7752 11.7563 57.9201 11.7255 58.0667 11.7245H69.2422C69.8574 11.7245 70.3707 12.2428 70.3707 12.8911V15.4573L70.3962 15.4582ZM6.54454 7.9653H0.777466V26.6847H6.54454V7.9653ZM84.2636 0.472436H78.5476V26.6839H84.2636V0.472436ZM86.7244 26.6584H92.4405V0.472436H86.7244V26.6584ZM42.1998 11.569H48.9925V7.93896H42.1998V0.36792H36.4582V22.3282C36.4582 24.2995 37.1244 25.5954 38.3548 26.2174C39.2776 26.6847 40.0211 26.6065 43.8661 26.6065H48.8642V22.8465C48.8642 22.8465 43.7633 22.9502 42.9943 22.7428C42.3536 22.5618 42.1743 22.0435 42.1743 21.3952V11.569H42.1998ZM0.802957 0.446094H6.54454V4.20612H0.828449L0.802957 0.446094ZM33.3304 9.44297C32.4084 8.35362 31.896 7.93896 26.564 7.96445H8.95435V26.6839H14.6704V11.75H27.2047C27.8199 11.7245 28.3068 12.2428 28.3068 12.8648V26.6839H34.0747V15.1727C34.0747 13.1503 34.2277 10.4796 33.3312 9.44297H33.3304ZM124.84 8.35277C124.303 8.11995 123.738 7.96445 119.868 7.96445H103.899V11.6973H120.355C120.995 11.7228 121.509 12.2683 121.509 12.9158V15.431H105.718C103.925 15.4055 103.002 16.494 103.002 19.1128C103.002 19.1128 102.951 21.2388 103.002 22.8975C103.027 23.805 103.002 24.7388 103.335 25.3872C103.745 26.2165 104.437 26.5793 105.77 26.683L127.25 26.7085V12.5266C127.301 10.4788 126.174 8.92378 124.84 8.35277ZM120.431 22.9255H109.819C109.281 22.951 108.82 22.5109 108.768 21.9662V20.2294C108.793 19.6583 109.255 19.2182 109.794 19.2182H121.533V21.8362C121.533 22.459 121.046 22.951 120.431 22.9255ZM154.574 20.514C154.574 19.14 154.702 17.5587 153.446 16.262C152.575 15.3553 151.113 15.4845 151.139 15.4327H136.503C136.276 15.4176 136.06 15.3283 135.889 15.1784C135.717 15.0285 135.6 14.8265 135.555 14.6033C135.555 14.4478 135.528 14.2923 135.528 14.136V12.6847C135.528 12.5547 135.555 12.4255 135.606 12.2955C135.759 11.9327 136.093 11.699 136.477 11.699H153.702V7.9653H137.272C133.376 7.9653 132.453 8.06896 131.684 8.45814C130.479 9.13197 129.736 10.376 129.736 12.3983V14.006C129.736 15.2763 129.761 16.6767 130.889 17.947C131.94 19.0873 133.068 19.1137 134.504 19.2173H147.858C148.397 19.2428 148.832 19.6838 148.858 20.2285V21.9653C148.832 22.2204 148.718 22.4585 148.536 22.6384C148.353 22.8184 148.113 22.929 147.858 22.951C147.807 22.9765 130.581 22.951 130.581 22.951V26.6839H147.294C151.37 26.7093 152.113 26.6329 152.626 26.3474C154.138 25.5435 154.42 24.5578 154.522 22.691V20.5132L154.574 20.514ZM94.9005 0.446094H100.617V4.20612H94.9005V0.446094ZM100.617 7.9653H94.9005V26.632H100.617V7.9653Z" fill="#3CD5AF"/>
</g>
<defs>
<clipPath id="clip0_42_1306">
<rect width="154.65" height="27.1911" fill="white"/>
</clipPath>
</defs>
</svg>
