<svg width="150" height="22" viewBox="0 0 150 22" fill="none" xmlns="http://www.w3.org/2000/svg">
<path fill-rule="evenodd" clip-rule="evenodd" d="M22.8457 20.8684V9.94941C22.8457 6.85217 21.1802 5.38215 18.3838 5.38215C16.0581 5.38215 14.0468 6.7587 13.1665 8.13525C12.6014 6.41456 11.1866 5.38215 8.95608 5.38215C6.63039 5.38215 4.6191 6.82073 3.99115 7.72823V5.75688H0V20.8684H3.99115V10.7006C4.58766 9.85594 5.75008 8.917 7.13343 8.917C8.76745 8.917 9.39624 9.91797 9.39624 11.326V20.8684H13.418V10.6691C13.9839 9.85594 15.1472 8.917 16.5611 8.917C18.1951 8.917 18.8239 9.91797 18.8239 11.326V20.8684H22.8457ZM33.813 21.2439C28.8167 21.2439 25.8001 17.6148 25.8001 13.2973C25.8001 9.01132 28.8167 5.38215 33.813 5.38215C38.8409 5.38215 41.8582 9.01047 41.8582 13.2973C41.8582 17.6139 38.8417 21.2439 33.813 21.2439ZM33.813 17.7091C36.2959 17.7091 37.7099 15.6748 37.7099 13.2973C37.7099 10.9504 36.2959 8.917 33.813 8.917C31.331 8.917 29.9477 10.9504 29.9477 13.2973C29.9477 15.6748 31.331 17.7082 33.8139 17.7082L33.813 17.7091ZM59.0473 20.8684V10.2001C59.0473 7.25919 57.4447 5.38215 54.1138 5.38215C51.6309 5.38215 49.7768 6.57091 48.803 7.72823V5.75688H44.8119V20.8684H48.803V10.7006C49.4624 9.79306 50.6886 8.917 52.2597 8.917C53.9566 8.917 55.0561 9.63671 55.0561 11.733V20.8684H59.0473ZM70.0461 21.2439C65.0497 21.2439 62.0332 17.6148 62.0332 13.2973C62.0332 9.01132 65.0497 5.38215 70.0461 5.38215C75.0739 5.38215 78.0913 9.01047 78.0913 13.2973C78.0913 17.6139 75.0748 21.2439 70.0461 21.2439ZM70.0461 17.7091C72.529 17.7091 73.9429 15.6748 73.9429 13.2973C73.9429 10.9504 72.529 8.917 70.0461 8.917C67.5641 8.917 66.1807 10.9504 66.1807 13.2973C66.1807 15.6748 67.5632 17.7082 70.0469 17.7082L70.0461 17.7091ZM85.0361 16.019C85.6954 16.9885 87.1731 17.7082 88.4613 17.7082C90.787 17.7082 92.3267 15.9561 92.3267 13.3288C92.3267 10.7006 90.787 8.917 88.4613 8.917C87.1731 8.917 85.6954 9.66815 85.0361 10.6691V16.019ZM85.0361 20.8684H81.0449V0.000849725H85.0361V7.69679C86.2299 6.16389 87.9268 5.38215 89.718 5.38215C93.5834 5.38215 96.4428 8.38507 96.4428 13.3288C96.4428 18.3651 93.552 21.2439 89.718 21.2439C87.8954 21.2439 86.2299 20.4299 85.0361 18.9284V20.8684ZM112.565 20.8684H108.573V19.304C107.536 20.5242 105.745 21.2439 103.765 21.2439C101.346 21.2439 98.4855 19.6167 98.4855 16.2382C98.4855 12.7034 101.346 11.3574 103.765 11.3574C105.776 11.3574 107.567 12.0142 108.573 13.203V11.1696C108.573 9.63671 107.253 8.63574 105.242 8.63574C103.608 8.63574 102.099 9.23054 100.811 10.4185L99.3029 7.75882C101.157 6.13245 103.546 5.38215 105.933 5.38215C109.39 5.38215 112.565 6.7587 112.565 11.1076V20.8684ZM105.368 18.5529C106.656 18.5529 107.913 18.1153 108.573 17.2392V15.3613C107.913 14.4861 106.656 14.0476 105.368 14.0476C103.796 14.0476 102.508 14.8617 102.508 16.3317C102.508 17.7397 103.796 18.5529 105.368 18.5529ZM130.759 20.8684V10.2001C130.759 7.25919 129.156 5.38215 125.825 5.38215C123.343 5.38215 121.489 6.57091 120.515 7.72823V5.75688H116.523V20.8684H120.515V10.7006C121.175 9.79306 122.4 8.917 123.971 8.917C125.668 8.917 126.769 9.63671 126.769 11.733V20.8684H130.759ZM149.551 20.8684L143.36 12.609L149.363 5.75688H144.461L138.71 12.4841V0H134.719V20.8675H138.71V16.9885L140.532 15.0495L144.555 20.8684H149.551Z" fill="black"/>
</svg>
