<svg width="157" height="38" viewBox="0 0 157 38" fill="none" xmlns="http://www.w3.org/2000/svg">
<g clip-path="url(#clip0_42_1296)">
<path d="M71.6138 24.967C69.7928 25.0095 68.1427 24.8056 66.5783 24.13C64.59 23.271 63.4106 21.8018 63.1047 19.6435C62.9084 18.2601 63.1055 16.9635 63.7462 15.7178C64.2416 14.7567 65.0021 14.0608 65.936 13.5646C67.2955 12.8415 68.774 12.5738 70.3069 12.4446C71.2425 12.3656 72.1602 12.4293 73.077 12.4871C74.785 12.5925 76.453 12.9417 77.8814 13.9469C79.1364 14.8307 79.8867 16.0415 80.0685 17.5931C80.202 18.7232 80.1969 19.8347 79.8111 20.9147C79.2452 22.4977 78.0861 23.5123 76.5566 24.1411C75.4766 24.5846 74.3567 24.8277 73.1832 24.9101C72.6148 24.9492 72.0489 24.9245 71.6138 24.967ZM71.822 21.8332C72.3743 21.8137 73.1943 21.7738 73.9777 21.4746C74.8037 21.1602 75.4053 20.6317 75.6763 19.7752C75.8318 19.2798 75.7885 18.7683 75.774 18.2627C75.7426 17.1708 75.1283 16.3406 74.112 15.9727C72.8085 15.5019 71.4583 15.4459 70.1038 15.6693C69.5073 15.7671 68.9151 15.9362 68.4197 16.3355C67.5946 17.0009 67.3558 17.8744 67.3805 18.8889C67.4094 20.0505 68.1138 21.0838 69.2405 21.4916C69.9968 21.7661 70.7666 21.8137 71.822 21.8332ZM62.5974 24.6798H58.4337C57.3996 24.6798 57.4115 24.6696 56.7768 23.8896C56.0928 23.0492 55.3824 22.2301 54.6865 21.3999C54.6142 21.314 54.5284 21.303 54.4273 21.3039C53.7008 21.3056 52.9743 21.3183 52.2486 21.2988C51.9835 21.2911 51.9954 21.4271 51.9962 21.6047C51.9988 22.5071 51.9869 23.4095 52.0047 24.311C52.009 24.5974 51.9342 24.6917 51.6343 24.6875C50.516 24.6705 49.3978 24.6688 48.2812 24.6875C47.9728 24.6926 47.9218 24.588 47.9218 24.311C47.9303 20.5501 47.9303 16.7893 47.9218 13.0284C47.9218 12.7701 47.9694 12.6724 48.2592 12.6732C50.9842 12.6851 53.7093 12.6562 56.4335 12.6911C57.6121 12.7064 58.7813 12.8559 59.8519 13.4363C61.033 14.0778 61.6083 15.0652 61.7859 16.3763C61.9405 17.5132 61.6737 18.4989 61.0033 19.3996C60.6212 19.9256 60.1111 20.3454 59.5214 20.619C59.2129 20.76 59.2393 20.8637 59.4177 21.0651C59.8451 21.5511 60.2674 22.0414 60.6957 22.5266C61.3041 23.2183 61.9142 23.9074 62.5974 24.6798ZM54.3772 15.541C53.609 15.541 52.9794 15.5512 52.3497 15.5368C52.0965 15.5308 51.9809 15.5742 51.9886 15.8682C52.0107 16.6737 52.0081 17.4784 51.9886 18.2839C51.9818 18.5686 52.0787 18.6323 52.3472 18.6289C53.5351 18.6153 54.7239 18.623 55.9118 18.6238C56.3075 18.6311 56.6955 18.5144 57.0215 18.2899C57.5577 17.9126 57.7251 17.3467 57.6418 16.7383C57.5602 16.1392 57.2118 15.7586 56.5644 15.6235C55.786 15.4612 55.0094 15.6124 54.3755 15.541H54.3772ZM102.267 24.6781C100.311 24.6781 98.3537 24.6705 96.3968 24.6849C96.0807 24.6875 96.0017 24.6016 96.0026 24.2898C96.0145 20.5425 96.0136 16.7952 96.0034 13.0471C96.0034 12.7573 96.0807 12.6732 96.3756 12.6741C100.219 12.6826 104.062 12.6843 107.905 12.6741C108.212 12.6741 108.272 12.7709 108.265 13.0496C108.245 13.8267 108.246 14.6042 108.266 15.3813C108.275 15.6804 108.182 15.7433 107.894 15.7424C105.407 15.7305 102.918 15.7433 100.431 15.7271C100.075 15.7246 99.9708 15.824 100.003 16.1647C100.033 16.4817 100.033 16.8046 100.003 17.1215C99.9742 17.4274 100.093 17.4801 100.376 17.4784C102.486 17.4657 104.596 17.4784 106.707 17.4648C106.991 17.4631 107.092 17.5192 107.078 17.8217C107.052 18.3893 107.053 18.9603 107.078 19.5296C107.091 19.8168 107.016 19.8984 106.716 19.8959C104.606 19.8823 102.496 19.8959 100.385 19.8806C100.062 19.878 99.9801 19.9672 100.004 20.2714C100.032 20.63 100.031 20.9946 100.004 21.3531C99.9818 21.6565 100.097 21.7151 100.381 21.7143C102.966 21.7032 105.552 21.7143 108.137 21.6998C108.48 21.6981 108.592 21.7738 108.577 22.1289C108.549 22.8501 108.549 23.572 108.576 24.2932C108.587 24.6093 108.493 24.6883 108.179 24.6866C106.209 24.6722 104.238 24.6798 102.268 24.6798L102.267 24.6781ZM87.9684 15.7917C85.7736 15.7917 83.5788 15.7807 81.3856 15.801C81.0007 15.8053 80.9183 15.6931 80.931 15.3362C80.9582 14.5596 80.9489 13.7813 80.9336 13.0038C80.9285 12.7463 81.0083 12.6749 81.2658 12.6749C85.4881 12.6826 89.7104 12.6826 93.9326 12.6749C94.2096 12.6749 94.3108 12.7582 94.2802 13.0284C94.2632 13.1788 94.2776 13.3326 94.2776 13.4855C94.2776 14.8944 94.2946 14.9131 93.218 15.8342C92.6997 16.2777 92.24 16.7765 91.7412 17.2371C90.6434 18.2542 89.5727 19.3028 88.4621 20.3071C88.033 20.6955 87.6209 21.0931 87.2045 21.5137C87.3634 21.6055 87.5028 21.5647 87.6353 21.5656C89.7325 21.569 91.8296 21.5741 93.9258 21.5613C94.2232 21.5596 94.3397 21.6089 94.3278 21.9394C94.2997 22.7161 94.2955 23.4953 94.3286 24.2711C94.3447 24.645 94.2037 24.6883 93.8783 24.6866C91.3758 24.673 88.8734 24.6781 86.3709 24.6781C84.6511 24.6781 82.9313 24.6696 81.2123 24.6849C80.8953 24.6875 80.7942 24.6025 80.8197 24.2889C80.8664 23.6967 80.6413 23.033 80.9055 22.5258C81.1664 22.027 81.7111 21.6675 82.1504 21.2682C83.5354 20.0106 84.8856 18.7156 86.2647 17.4529C86.8434 16.9235 87.3507 16.3202 87.9667 15.7908L87.9684 15.7917ZM129.218 17.0111C129.936 16.3908 130.591 15.8282 131.241 15.2606C132.178 14.4449 133.113 13.6266 134.043 12.8049C134.136 12.7208 134.258 12.6763 134.384 12.6809L139.289 12.6877C139.313 12.6877 139.336 12.7081 139.407 12.7412C138.908 13.172 138.431 13.5918 137.944 14.003C137.273 14.5706 136.597 15.1349 135.918 15.694C135.228 16.2624 134.585 16.8853 133.859 17.4087C133.705 17.5192 133.679 17.5965 133.825 17.7767C134.934 19.1507 136.023 20.5417 137.116 21.9275L139.282 24.6773H136.234C135.843 24.6773 135.442 24.622 135.063 24.6891C134.357 24.8141 133.966 24.4512 133.597 23.9431C132.73 22.7526 131.834 21.5851 130.966 20.3955C130.755 20.1057 130.604 20.1346 130.37 20.3581C130.052 20.6623 129.714 20.9478 129.363 21.2138C129.207 21.331 129.217 21.4619 129.217 21.6106C129.217 22.5266 129.208 23.4426 129.224 24.3586C129.228 24.6118 129.165 24.6875 128.903 24.6841C127.771 24.6705 126.639 24.67 125.507 24.6824C125.247 24.6849 125.143 24.6297 125.144 24.3425C125.152 20.5663 125.152 16.791 125.144 13.0148C125.144 12.7267 125.247 12.6724 125.507 12.6749C126.638 12.6868 127.771 12.6885 128.903 12.6732C129.166 12.6698 129.226 12.7471 129.223 12.9995C129.211 14.3047 129.217 15.609 129.217 17.0102H129.218V17.0111ZM139.677 24.679C140.264 23.4358 140.815 22.2674 141.365 21.0965C142.321 19.0631 143.274 17.0289 144.227 14.9955C144.533 14.3412 144.849 13.6903 145.133 13.0275C145.247 12.7599 145.394 12.6715 145.686 12.6741C147.223 12.6911 148.761 12.6911 150.298 12.6741C150.598 12.6698 150.744 12.7752 150.862 13.0275C152.032 15.5329 153.205 18.0368 154.381 20.5391C154.988 21.8335 155.6 23.1259 156.216 24.4164C156.313 24.6203 156.265 24.6815 156.044 24.6798C154.702 24.6747 153.361 24.6722 152.02 24.6832C151.775 24.6849 151.717 24.5286 151.649 24.3637C151.41 23.7833 151.17 23.203 150.945 22.6167C150.864 22.4059 150.748 22.3388 150.518 22.3405C148.855 22.3524 147.192 22.3558 145.529 22.338C145.213 22.3346 145.094 22.4637 144.994 22.7254C144.77 23.3118 144.515 23.8836 144.284 24.4674C144.226 24.6118 144.162 24.6841 143.99 24.6832C142.581 24.6756 141.172 24.679 139.677 24.679H139.677ZM148.056 15.6303L147.95 15.6353C147.745 16.1231 147.538 16.6108 147.336 17.1003C146.989 17.9372 146.649 18.7785 146.298 19.6138C146.221 19.7956 146.167 19.9299 146.454 19.929C147.501 19.9256 148.547 19.9273 149.594 19.9273C149.757 19.9273 149.822 19.8942 149.734 19.7089C149.562 19.3418 149.42 18.9612 149.267 18.5864L148.056 15.6303ZM116.659 12.6792C118.868 12.6792 121.076 12.686 123.284 12.6732C123.6 12.6715 123.718 12.7378 123.705 13.0794C123.681 13.87 123.68 14.6611 123.703 15.4518C123.709 15.728 123.626 15.8002 123.352 15.7976C121.927 15.784 120.501 15.801 119.076 15.784C118.765 15.7807 118.682 15.8554 118.683 16.1707C118.696 18.8634 118.684 21.5562 118.699 24.2481C118.7 24.5914 118.613 24.6934 118.261 24.6866C117.171 24.6608 116.081 24.6614 114.991 24.6883C114.6 24.6993 114.541 24.5659 114.544 24.2184C114.557 21.5528 114.541 18.8889 114.562 16.2242C114.565 15.8384 114.448 15.7781 114.097 15.7832C112.729 15.8036 111.359 15.7832 109.99 15.7985C109.678 15.8019 109.551 15.7475 109.564 15.3991C109.594 14.6233 109.596 13.8441 109.564 13.0683C109.55 12.7098 109.696 12.6749 109.993 12.6775C112.214 12.686 114.437 12.6817 116.658 12.6817V12.68H116.659V12.6792ZM36.0971 18.5431C36.1871 28.7508 28.006 36.0729 19.0695 36.5402C13.5182 36.83 8.75722 34.93 4.93856 30.9423C1.58896 27.4457 -0.0552584 23.2234 0.00167309 18.3511C0.112137 8.61663 7.98312 1.23254 16.8007 0.739698C21.9415 0.452492 26.5198 1.9735 30.3402 5.46671C34.1826 8.98032 36.1684 13.7982 36.0962 18.544H36.0979L36.0971 18.5431ZM13.5259 6.21617C13.3814 5.99524 13.2947 5.85248 13.197 5.71823C11.9411 3.99414 10.0208 3.52424 8.08934 4.45214C7.32629 4.81922 6.65671 5.31716 6.03981 5.88307C3.19578 8.49087 1.41051 11.6807 0.756227 15.479C0.384049 17.6424 0.3798 19.81 0.819107 21.9641C1.64674 26.0122 3.65208 29.3737 6.83515 32.0333C10.0327 34.704 13.7774 35.9556 17.9096 36.1222C18.778 36.157 19.6515 36.0211 20.5199 35.8996C24.2621 35.3778 27.5115 33.8237 30.2323 31.2346C33.2293 28.3829 35.0035 24.8948 35.5227 20.7915C35.651 19.7744 35.594 18.7555 35.5923 17.7367C35.5923 16.5429 35.4071 15.3711 35.0995 14.2214C34.0798 10.4036 31.9946 7.27237 28.8659 4.84386C26.0058 2.62269 22.7352 1.45602 19.117 1.21045C18.1815 1.14672 17.2604 1.21469 16.3291 1.28947C15.1089 1.38634 13.9363 1.66165 12.7679 1.98454C12.4994 2.05847 12.4085 2.16044 12.5495 2.43575C12.8741 3.06879 13.0789 3.74772 13.2429 4.436C13.3755 4.99511 13.5471 5.55253 13.525 6.21617H13.5259Z" fill="black"/>
<path d="M13.5258 6.21632C13.5471 5.55269 13.3754 4.99527 13.2429 4.43615C13.0797 3.74787 12.8749 3.0681 12.5495 2.4359C12.4084 2.16144 12.4985 2.05862 12.7679 1.9847C13.9371 1.6618 15.1089 1.38649 16.3291 1.28962C17.2604 1.21485 18.1815 1.14687 19.117 1.2106C22.7343 1.45702 26.0057 2.62284 28.8667 4.84402C31.9954 7.27253 34.0798 10.4038 35.1003 14.2216C35.407 15.3712 35.5923 16.543 35.5931 17.7377C35.5931 18.7548 35.6518 19.7754 35.5226 20.7908C35.0043 24.8949 33.2284 28.3831 30.2322 31.2347C27.5114 33.8238 24.2629 35.378 20.5199 35.8997C19.6532 36.0204 18.778 36.1572 17.9095 36.1223C13.7773 35.9558 10.0326 34.7041 6.8351 32.0326C3.65289 29.3755 1.64584 26.0123 0.819059 21.9642C0.379752 19.8102 0.384 17.6425 0.757029 15.4792C1.41047 11.6809 3.19574 8.49188 6.04146 5.88323C6.65836 5.31731 7.32709 4.81938 8.09014 4.45229C10.0216 3.5244 11.9428 3.99514 13.1978 5.71838C13.2955 5.85264 13.3814 5.99624 13.5258 6.21632ZM14.5463 15.3993C15.2542 14.8614 15.9314 14.2785 16.708 13.84C18.2341 12.9784 19.7823 12.2315 21.6364 12.455C22.4828 12.5587 23.2475 13.0583 23.5075 13.8757C23.663 14.3652 23.6078 14.8648 23.55 15.3542C23.6545 15.3797 23.6928 15.333 23.7183 15.2863C24.1091 14.5598 24.4235 13.8027 24.5085 12.9784C24.6292 11.7871 24.0964 10.9221 23.1065 10.7547C22.5683 10.6586 22.0167 10.6672 21.4818 10.7802C19.7101 11.1745 18.2018 12.0871 16.7998 13.1875C15.9679 13.8392 15.1598 14.5198 14.5208 15.3729C14.4852 15.3916 14.4418 15.4095 14.4979 15.452C14.4996 15.4528 14.5293 15.4188 14.5463 15.3993ZM17.4813 8.40011C18.5978 7.82655 19.7398 7.33371 21.0102 7.1918C22.8966 6.98022 24.5527 7.40678 25.8647 8.84367C26.0176 9.01191 26.1621 9.18695 26.349 9.40193C26.2011 8.21572 25.7482 7.00062 25.1313 6.18998C24.4048 5.23319 23.4472 4.82532 22.238 5.03945C21.0901 5.24254 20.1248 5.81185 19.2377 6.52137C18.5664 7.0584 17.9019 7.61072 17.4473 8.36017C17.4108 8.38311 17.3326 8.39246 17.3708 8.44515C17.4023 8.49018 17.4541 8.44515 17.4804 8.40096L17.4813 8.40011ZM30.2934 14.6226C30.2084 14.6685 30.1192 14.7085 30.0385 14.7603C27.3355 16.5056 24.4983 17.985 21.4597 19.0709C18.9148 19.9801 16.2968 20.58 13.5997 20.7789C12.0677 20.8927 10.5229 20.8885 8.99595 20.7058C7.55578 20.5398 6.14059 20.2023 4.78047 19.7006C4.42868 19.5697 4.32502 19.6462 4.39385 20.0031C4.5366 20.75 4.6955 21.4943 4.96996 22.209C6.25474 25.5399 8.17681 28.4493 10.7957 30.8948C11.9547 31.9757 13.2344 32.8866 14.7197 33.4797C15.8838 33.9445 17.0819 34.2538 18.3514 34.0838C19.7645 33.8952 20.8598 33.1058 21.8361 32.1482C23.465 30.5507 24.6385 28.6286 25.6939 26.6335C27.1129 23.9509 28.2388 21.1443 29.227 18.2824C29.6383 17.0911 30.0674 15.9032 30.3393 14.6685C30.369 14.6413 30.3911 14.6107 30.3461 14.5818C30.341 14.5776 30.3121 14.6082 30.2934 14.6226ZM5.96838 13.8545C5.94034 14.8708 6.12133 15.8428 6.62607 16.735C7.34578 18.0079 8.54049 18.2688 9.72161 17.4046C10.607 16.758 11.1245 15.8403 11.5145 14.8453C11.8289 14.0414 11.9785 13.2078 12.06 12.3445C12.1892 10.9654 12.0626 9.6577 11.2647 8.48678C10.6215 7.54444 9.55506 7.34815 8.58213 7.95146C8.14962 8.21912 7.79189 8.57345 7.49618 8.97792C6.43233 10.4309 6.00322 12.0828 5.96838 13.8545Z" fill="#05BB52"/>
<path d="M30.3393 14.6673C30.0657 15.9011 29.6383 17.0891 29.2271 18.2804C28.2397 21.1431 27.1129 23.9489 25.6939 26.6314C24.6377 28.6266 23.4651 30.5487 21.8362 32.1461C20.8598 33.1021 19.7654 33.8923 18.3515 34.0818C17.082 34.2518 15.8839 33.9425 14.7197 33.4785C13.2344 32.8837 11.9547 31.9737 10.7957 30.892C8.17686 28.4473 6.25394 25.537 4.97001 22.2078C4.69385 21.4932 4.53665 20.7488 4.39305 20.0002C4.32507 19.645 4.42874 19.5677 4.78052 19.6986C6.14433 20.2075 7.55827 20.5321 8.99515 20.7038C10.5221 20.8865 12.0677 20.8907 13.6006 20.7777C16.2977 20.578 18.914 19.979 21.4606 19.0689C24.4984 17.983 27.3364 16.5027 30.0385 14.7583C30.1193 14.7064 30.2085 14.6665 30.2935 14.6206L30.3393 14.6656V14.6673ZM17.3811 33.6374C19.0321 33.6587 20.1546 32.9925 21.1581 32.0875C22.4845 30.8903 23.4829 29.4398 24.3513 27.8958C24.5859 27.4786 24.5782 27.471 24.0896 27.4693C23.1974 27.4676 22.3052 27.4523 21.4139 27.5406C19.5615 27.7242 17.7974 28.1856 16.1626 29.0829C14.9747 29.7338 13.955 30.5835 13.1647 31.6898C13.0424 31.8598 12.9379 32.0034 13.1902 32.164C14.5413 33.0222 15.9867 33.5907 17.3811 33.6374ZM17.4473 8.35814C17.9028 7.61039 18.5673 7.05722 19.2386 6.52019C20.1257 5.81067 21.091 5.24136 22.2381 5.03827C23.4472 4.82499 24.4049 5.23201 25.1322 6.1888C25.7483 6.99944 26.202 8.21454 26.349 9.40075C26.163 9.18577 26.0185 9.01073 25.8647 8.84249C24.5536 7.40645 22.8975 6.97904 21.0111 7.19062C19.7399 7.33253 18.5987 7.82452 17.4822 8.39893C17.4704 8.38546 17.459 8.37157 17.4482 8.35729L17.4473 8.35814ZM14.52 15.3735C15.159 14.5203 15.9688 13.8397 16.799 13.188C18.2019 12.0876 19.7093 11.175 21.481 10.7799C22.0159 10.6672 22.5676 10.6588 23.1057 10.7552C24.0964 10.9226 24.6284 11.7876 24.5077 12.9789C24.4236 13.8032 24.1083 14.5611 23.7175 15.2868C23.6928 15.3335 23.6554 15.3794 23.5501 15.3548C23.6078 14.8653 23.6622 14.3657 23.5076 13.8762C23.2484 13.0571 22.4828 12.5592 21.6356 12.4564C19.7832 12.232 18.2333 12.9789 16.7072 13.8406C15.9297 14.279 15.2542 14.8619 14.5464 15.3998L14.5209 15.3743V15.3726L14.52 15.3735ZM5.96843 13.8525C6.00327 12.0816 6.43238 10.4289 7.49539 8.97589C7.79279 8.57142 8.14967 8.21709 8.58303 7.94943C9.55512 7.34612 10.6224 7.54241 11.2648 8.48475C12.0635 9.65567 12.1893 10.9634 12.0601 12.3425C11.9794 13.2058 11.829 14.0394 11.5137 14.8432C11.1246 15.8374 10.6071 16.7551 9.72166 17.4026C8.54055 18.2668 7.34584 18.0059 6.62527 16.7322C6.12223 15.8417 5.94039 14.8696 5.96843 13.8525ZM11.7007 11.7596C11.699 11.384 11.6497 11.0161 11.614 10.6456C11.5509 9.95304 11.3174 9.28687 10.9342 8.70653C10.4159 7.91119 9.35118 7.89589 8.74873 8.29441C8.40783 8.51185 8.10926 8.7894 7.86757 9.11355C6.6771 10.7527 6.28878 12.6085 6.41709 14.5858C6.46637 15.348 6.65331 16.0915 7.10536 16.7407C7.67468 17.5581 8.58048 17.7331 9.40556 17.1732C9.67068 16.993 9.9069 16.7823 10.1108 16.5274C11.2291 15.1287 11.6106 13.493 11.6998 11.7604L11.7007 11.7596Z" fill="black"/>
<path d="M17.4831 8.40016C17.4567 8.44605 17.4049 8.49108 17.3726 8.44605C17.3335 8.39251 17.4142 8.38232 17.4491 8.35938L17.4831 8.40016ZM30.2926 14.6227C30.3113 14.6082 30.3411 14.576 30.347 14.5802C30.3929 14.6108 30.37 14.6414 30.3402 14.6686L30.2926 14.6227ZM14.5473 15.4002C14.5303 15.4189 14.5005 15.4554 14.498 15.4546C14.441 15.4104 14.4844 15.3934 14.5209 15.3738L14.5481 15.3993L14.5473 15.4002Z" fill="black"/>
<path d="M17.3803 33.6395C15.9868 33.5919 14.5405 33.0243 13.1903 32.1652C12.9371 32.0037 13.0416 31.861 13.164 31.691C13.9542 30.5838 14.9739 29.7367 16.161 29.0841C17.7967 28.1868 19.5607 27.7245 21.4131 27.5418C22.3053 27.4535 23.1975 27.4696 24.0889 27.4705C24.5775 27.4705 24.5851 27.479 24.3506 27.897C23.4822 29.441 22.4838 30.8906 21.1573 32.0887C20.1547 32.9937 19.0313 33.6598 17.3795 33.6395H17.3803ZM11.7008 11.7599C11.6124 13.4925 11.2309 15.1282 10.1118 16.5269C9.91065 16.776 9.67319 16.9934 9.40737 17.1718C8.58314 17.7326 7.67649 17.5576 7.10717 16.7385C6.65512 16.0901 6.46903 15.3475 6.41889 14.5844C6.29144 12.6071 6.67891 10.7513 7.86937 9.11219C8.10984 8.7808 8.40895 8.51738 8.75054 8.29221C9.35299 7.89454 10.4168 7.90983 10.936 8.70517C11.3235 9.29998 11.5478 9.93727 11.6158 10.6442C11.6515 11.0147 11.7008 11.3835 11.7025 11.7582L11.7008 11.7591V11.7599ZM11.0176 12.2834C11.0176 12.0038 11.0371 11.8075 11.0133 11.6172C10.9675 11.2416 10.8086 10.8898 10.4466 10.7547C10.0693 10.6137 9.71582 10.7505 9.43711 11.0657C9.27057 11.2543 9.20089 11.3818 9.38613 11.6265C9.64444 11.9698 9.49659 12.4321 9.08957 12.5315C8.74714 12.6156 8.73269 12.8051 8.73864 13.0702C8.74374 13.3651 8.79047 13.648 8.91793 13.9157C9.21618 14.5428 9.76341 14.666 10.2605 14.185C10.8188 13.6463 11.0847 12.9784 11.0176 12.2817V12.2834Z" fill="#05BB52"/>
<path d="M11.0175 12.2826C11.0854 12.9811 10.8178 13.6464 10.2612 14.186C9.76327 14.6669 9.21604 14.5437 8.91864 13.9166C8.79859 13.651 8.73715 13.3626 8.7385 13.0711C8.7334 12.806 8.747 12.6165 9.08943 12.5324C9.4956 12.433 9.6443 11.9716 9.38599 11.6275C9.20075 11.3827 9.27128 11.2536 9.43697 11.0666C9.71653 10.7514 10.0692 10.6146 10.4464 10.7556C10.8084 10.8908 10.9673 11.2425 11.0132 11.6181C11.0362 11.8093 11.0175 12.0047 11.0175 12.2843V12.2826Z" fill="black"/>
</g>
<defs>
<clipPath id="clip0_42_1296">
<rect width="156.349" height="37.3878" fill="white"/>
</clipPath>
</defs>
</svg>
