<svg width="158" height="45" viewBox="0 0 158 45" fill="none" xmlns="http://www.w3.org/2000/svg">
<g clip-path="url(#clip0_42_1313)">
<path d="M22.1633 0.387451C19.1213 0.387451 16.5594 6.63802 15.6731 15.2831C7.02803 16.1694 0.777466 18.7313 0.777466 21.7733C0.777466 24.8145 7.02803 27.3772 15.6731 28.2626C16.5594 36.9086 19.1221 43.1583 22.1633 43.1583C25.9233 43.1583 28.9645 33.5793 28.9645 21.7733C28.9645 9.96638 25.9233 0.387451 22.1633 0.387451Z" fill="#E11F27"/>
<path d="M28.6535 15.2833L15.6731 28.262C17.709 28.4778 19.9124 28.5738 22.1633 28.5738C33.9702 28.5738 43.5491 25.5318 43.5491 21.7727C43.5491 18.7306 37.2748 16.1458 28.6535 15.2833Z" fill="#0A0A0A"/>
<path d="M28.6535 15.2833L15.6731 28.262C17.709 28.4778 19.9124 28.5738 22.1633 28.5738C24.415 28.5738 26.6175 28.454 28.6535 28.262C28.8693 26.2269 28.9645 24.0236 28.9645 21.7727C28.9645 19.4971 28.8455 17.3193 28.6535 15.2833Z" fill="#690000"/>
<path d="M15.674 28.2626L28.6526 15.283C26.6175 15.0672 24.438 14.9712 22.1633 14.9712C19.9115 14.9712 17.7082 15.091 15.6731 15.283C15.4573 17.3181 15.3613 19.5215 15.3613 21.7732C15.3375 24.0241 15.4581 26.2037 15.674 28.2626Z" fill="#A50D12"/>
<path d="M52.5298 30.9928H66.348C69.2939 30.9928 71.6885 28.7419 71.6885 25.9879V25.0532C71.6885 22.3477 69.4367 20.1444 66.5391 20.0483H57.1047C56.2906 20.0483 55.6431 19.4263 55.6431 18.6599V17.7498C55.6431 16.9834 56.3144 16.3605 57.1047 16.3605H70.6357V12.7203H57.1038C54.1578 12.7203 51.7633 14.9721 51.7633 17.7252V18.6361C51.7633 21.3892 54.1587 23.641 57.1038 23.641H66.3488C67.162 23.641 67.8086 24.2638 67.8086 25.0303V25.9641C67.8086 26.7306 67.1382 27.3526 66.348 27.3526H52.5298V30.9928ZM76.2625 30.9928H80.1424V12.7203H76.2863L76.2625 30.9928ZM130.386 30.9928H134.265V17.7507C134.265 14.9721 131.871 12.7458 128.925 12.7458H109.646V31.0174H113.503V16.3852H119.944V31.0174H123.8V16.3852H128.925C129.739 16.3852 130.386 17.008 130.386 17.7745V30.9928ZM157.041 17.7498C157.041 14.9959 154.646 12.745 151.7 12.745H139.415V16.3843H151.7C152.514 16.3843 153.161 17.0072 153.161 17.7736V20.0483H143.414C140.468 20.0483 138.073 22.3001 138.073 25.0779V26.0125C138.073 28.7894 140.468 31.0412 143.414 31.0412H157.017L157.041 17.7498ZM153.185 27.3526H143.438C142.623 27.3526 141.977 26.7306 141.977 25.9641V25.0294C141.977 24.2638 142.647 23.641 143.438 23.641H153.185V27.3526ZM85.3631 25.9879C85.3631 28.7419 87.7576 30.9928 90.7036 30.9928H104.33V20.0245H94.1518V23.6648H100.451V27.3526H90.7274C89.9133 27.3526 89.2667 26.7306 89.2667 25.9641V17.7252C89.2667 16.9596 89.9371 16.3367 90.7274 16.3367H104.306V12.6965H90.7274C87.7822 12.6965 85.3869 14.9483 85.3869 17.7252L85.3631 25.9879ZM53.009 43.3741V42.6323H53.0804C53.416 42.7275 54.2538 42.9195 54.7807 42.9195H55.0687C55.9303 42.9195 56.5048 42.6085 56.5048 41.746C56.5048 41.0034 56.1224 40.7637 55.4995 40.6201L54.5895 40.3805C53.9428 40.1893 53.1042 39.7823 53.1042 38.5604C53.1042 37.4592 53.9428 36.7165 55.3075 36.7165H55.5233C56.0264 36.7165 56.8166 36.861 57.08 37.0037V37.7226H57.0078C56.673 37.6036 55.9779 37.4592 55.5233 37.4592H55.3075C54.4459 37.4592 53.9428 37.7702 53.9428 38.5604C53.9428 39.2793 54.3974 39.4705 54.9489 39.6141L55.8343 39.8775C56.5294 40.0695 57.3672 40.4527 57.3672 41.7698C57.3672 42.9433 56.5294 43.6859 55.0925 43.6859H54.8053C54.2063 43.6375 53.2962 43.4701 53.009 43.3741ZM58.6129 41.0272C58.6129 39.5427 59.3309 38.5375 60.7678 38.5375C62.3007 38.5375 62.9236 39.5427 62.9236 41.0272C62.9236 42.6561 62.2047 43.6613 60.7678 43.6613C59.2358 43.6375 58.6129 42.6561 58.6129 41.0272ZM62.1563 41.0272C62.1563 39.9259 61.8461 39.2555 60.7678 39.2555C59.6904 39.2555 59.3794 39.9259 59.3794 41.0272C59.3794 42.1292 59.6904 42.9433 60.7678 42.9433C61.8461 42.9433 62.1563 42.1292 62.1563 41.0272ZM64.7675 39.3031H63.9772V38.5851H64.7675V38.3692C64.7675 37.2918 65.4133 36.7403 66.3955 36.7403H66.9708V37.4592H66.3955C65.7498 37.4592 65.5339 37.7464 65.5339 38.3939V38.6088H66.8272V39.3269H65.5339V43.5908H64.7437V39.3039L64.7675 39.3031ZM70.1318 43.5653C69.0781 43.5653 68.4315 43.0631 68.4315 41.8658V39.3031H67.6412V38.5851H68.4315V37.4592H69.2217V38.5851H70.6348V39.3031H69.2217V41.7222C69.2217 42.6314 69.5089 42.8473 70.2754 42.8473H70.7784V43.5661H70.1326L70.1318 43.5653ZM71.8083 39.8775V38.5859H72.5985V39.8792C72.5985 41.2914 73.0531 42.4649 73.4848 42.9917C73.9156 42.4649 74.371 41.2923 74.371 39.8792V38.5859H75.1613V39.8792C75.1613 41.2914 75.6159 42.4649 76.0476 42.9917C76.4546 42.4649 76.933 41.2923 76.933 39.8792V38.5859H77.7232V39.8792C77.7232 41.5786 77.0052 43.0639 76.5021 43.567H75.6643C75.4009 43.2798 74.8741 42.3935 74.7781 41.8667C74.6582 42.3935 74.1314 43.3027 73.8918 43.5661H73.054C72.5271 43.0877 71.8083 41.5786 71.8083 39.8775ZM79.0165 41.9372V41.147C79.0165 39.5903 80.286 38.5851 81.6506 38.5851H82.9923V43.5661H82.2021V42.6314L81.8427 42.9909C81.4832 43.3503 81.0524 43.6375 80.4296 43.6375C79.6631 43.6375 79.0165 43.1583 79.0165 41.9372ZM82.2259 41.8658V39.3031H81.6506C80.5732 39.3031 79.8067 40.0219 79.8067 41.147V41.9372C79.8067 42.7275 80.1662 42.9433 80.5732 42.9433C81.0762 42.9433 81.6515 42.4402 81.9387 42.153L82.2259 41.8658ZM85.7701 38.6088V39.7101L85.8423 39.5911C86.2255 39.0159 86.6563 38.6088 87.303 38.6088H87.614V39.4705H87.2545C86.896 39.4705 86.5603 39.6149 86.3207 39.8299L85.7463 40.4043V43.6137H84.9561V38.6088H85.7701ZM88.5725 41.65V40.6686C88.5725 39.3031 89.4825 38.5366 90.7036 38.5366C91.685 38.5366 92.4039 38.9683 92.4039 39.9735C92.4039 40.8598 91.8295 41.3866 90.8472 41.3866H89.3627V41.6738C89.3627 42.6085 89.9371 42.9671 90.7036 42.9671C91.278 42.9671 91.8295 42.7521 92.0444 42.6561H92.1167V43.3741C91.9008 43.4701 91.2542 43.6859 90.7036 43.6859C89.4825 43.6375 88.5725 43.0869 88.5725 41.65ZM89.3381 40.7153H90.6076C91.3978 40.7153 91.6136 40.4289 91.6136 39.9506C91.6136 39.4229 91.2542 39.2317 90.6798 39.2317C89.8173 39.2317 89.3381 39.6625 89.3381 40.6677V40.7153Z" fill="black"/>
</g>
<defs>
<clipPath id="clip0_42_1313">
<rect width="157.199" height="44.1856" fill="white"/>
</clipPath>
</defs>
</svg>
