<svg width="158" height="27" viewBox="0 0 158 27" fill="none" xmlns="http://www.w3.org/2000/svg">
<path d="M7.69594 15.4085C5.48326 14.5588 3.57224 13.8238 3.57224 12.1286C3.57224 10.1683 5.38385 9.46896 7.0782 9.46896C10.0114 9.46896 11.569 11.0664 11.5843 11.0826L11.7338 11.2389L13.0467 9.06959L12.9659 8.98122C12.8903 8.89795 11.0727 6.93764 7.15212 6.93764C4.03109 6.93764 0.672131 8.56146 0.672131 12.1277C0.672131 15.5012 3.76427 16.7069 6.49189 17.7708C8.70796 18.6358 10.6215 19.3818 10.6215 21.0634C10.6215 22.9498 8.84222 23.7944 7.0782 23.7944C3.74558 23.7944 1.71304 21.6616 1.69265 21.6413L1.55924 21.4968L0 23.531L0.0883713 23.6305C0.113863 23.6585 0.70697 24.3187 1.86429 24.9849C2.929 25.5967 4.69132 26.3275 7.04166 26.3275C10.7974 26.3275 13.5225 24.1131 13.5225 21.0634C13.5225 17.6476 10.427 16.4579 7.69594 15.4085ZM26.4459 6.93764C20.8769 6.93764 16.5152 11.1565 16.5152 16.5421C16.5152 22.0287 20.8769 26.3266 26.4459 26.3266C32.0142 26.3266 36.3767 22.0287 36.3767 16.5421C36.3767 11.1565 32.0142 6.93764 26.4459 6.93764ZM33.4766 16.5421C33.4766 20.6097 30.3887 23.7944 26.4459 23.7944C22.5032 23.7944 19.4153 20.6097 19.4153 16.5421C19.4153 12.5959 22.5024 9.50635 26.4459 9.50635C30.3887 9.50635 33.4766 12.5959 33.4766 16.5421ZM48.6628 0.0744213C48.2771 0.020823 47.888 -0.00388779 47.4987 0.000495344C45.5307 0.000495344 40.9533 0.674326 40.9533 6.91894V7.62421H38.4381V10.0077H40.9533V25.9043H43.7777V10.0077H48.5065V7.62421H43.7769V6.91894C43.7769 5.28068 44.2935 2.53012 47.7553 2.53012C48.2439 2.53012 48.6033 2.5998 48.6033 2.5998L48.8005 2.63719V0.0973638L48.6628 0.0744213ZM61.9873 23.644L61.7834 23.6874C61.7834 23.6874 61.4554 23.7579 60.9592 23.7579C59.4441 23.7579 56.9009 23.1427 56.9009 19.0224V10.0561H61.6134V7.62421H56.9009V2.27945H54.0594V7.62421H51.5527V10.0561H54.022V19.2799C54.022 25.42 58.2273 26.3368 60.7348 26.3368C61.4146 26.3368 61.8327 26.2637 61.8488 26.2603L61.9873 26.2357V23.644ZM67.7331 20.3871C67.7331 20.3871 69.7971 22.4204 72.8561 22.4204C74.1817 22.4204 75.3246 21.8392 75.3246 20.7499C75.3246 17.99 66.185 18.3537 66.185 12.3988C66.185 8.94893 69.3179 6.95208 73.3711 6.95208C77.6095 6.95208 79.6726 9.05855 79.6726 9.05855L77.9409 12.471C77.9409 12.471 76.2083 10.8736 73.3345 10.8736C72.1186 10.8736 70.9392 11.3817 70.9392 12.5433C70.9392 15.1579 80.0788 14.8316 80.0788 20.7864C80.0788 23.8718 77.3512 26.3419 72.8927 26.3419C68.2124 26.3419 65.5961 23.6186 65.5961 23.6186L67.7331 20.3871ZM92.6929 6.95208C98.1099 6.95208 101.021 10.837 101.021 15.7399C101.021 16.2837 100.911 17.5184 100.911 17.5184H87.9387C88.2336 20.7499 90.7768 22.4204 93.5775 22.4204C96.5991 22.4204 98.9945 20.3871 98.9945 20.3871L100.8 23.6908C100.8 23.6908 97.9255 26.3419 93.2452 26.3419C87.0176 26.3419 83.148 21.9123 83.148 16.6466C83.148 10.9466 87.0915 6.95208 92.6929 6.95208ZM96.3042 14.3591C96.2303 11.8541 94.6456 10.5099 92.5825 10.5099C90.1871 10.5099 88.5284 11.9629 88.0866 14.3591H96.3042ZM105.729 7.38629H110.224V10.5813C110.224 11.2712 110.15 11.8881 110.15 11.8881H110.224C111.072 9.23699 113.32 7.13137 116.194 7.13137C116.636 7.13137 117.042 7.20445 117.042 7.20445V11.7437C117.042 11.7437 116.562 11.6706 115.936 11.6706C113.946 11.6706 111.699 12.7965 110.814 15.5555C110.519 16.4639 110.409 17.4802 110.409 18.5695V25.9035H105.729V7.38629ZM119.079 7.39139H124.016L127.922 18.8644C128.291 19.9537 128.549 21.1849 128.587 21.1849H128.66C128.697 21.1849 128.955 19.9537 129.324 18.8652L133.229 7.39139H138.168L131.424 25.9086H125.896L119.079 7.39139ZM148.87 6.95208C154.287 6.95208 157.199 10.837 157.199 15.7399C157.199 16.2837 157.088 17.5184 157.088 17.5184H144.116C144.411 20.7499 146.954 22.4204 149.754 22.4204C152.776 22.4204 155.171 20.3871 155.171 20.3871L156.977 23.6908C156.977 23.6908 154.102 26.3419 149.423 26.3419C143.195 26.3419 139.326 21.9123 139.326 16.6466C139.326 10.9466 143.269 6.95208 148.87 6.95208ZM152.482 14.3591C152.408 11.8541 150.822 10.5099 148.759 10.5099C146.365 10.5099 144.705 11.9629 144.264 14.3591H152.482Z" fill="black"/>
</svg>
