<svg width="158" height="51" viewBox="0 0 158 51" fill="none" xmlns="http://www.w3.org/2000/svg">
<path d="M48.1666 25.4706C47.7009 -0.666923 13.6287 -10.3427 0.465648 14.0282C1.10039 14.5023 1.88384 15.149 2.36988 15.4727C1.41819 17.5622 0.634743 19.825 0.317797 21.9366C0.169095 23.3802 0 24.8452 0 26.4613C0 40.0153 10.7719 50.9835 24.0837 50.9835C37.3946 50.9835 48.1666 40.0153 48.1666 26.4613V25.4706ZM6.03134 29.8229C5.71354 32.4086 5.88348 33.3781 5.88348 33.7018L5.24874 33.8522C5.10004 33.3789 4.4653 31.9132 4.2962 29.8229C3.66146 21.9145 8.88811 14.8252 16.9724 13.5328C24.4219 12.412 31.3845 17.088 33.1409 23.704L32.5062 23.8544C32.3583 23.7031 32.0405 23.2086 30.9189 21.9153C22.0308 12.7358 7.91517 16.9156 6.03134 29.8229ZM28.8456 34.1972C27.5752 35.9647 25.671 37.1067 23.449 37.1067C19.8088 37.1067 16.8041 34.0468 16.8041 30.3403C16.8041 26.7851 19.491 23.8756 22.9833 23.7252C25.0354 23.574 27.1096 24.8452 28.0621 26.6338C29.0138 28.7242 28.6969 31.1586 27.1104 32.926C27.7231 33.3789 28.3595 33.8743 28.8456 34.1972ZM42.6221 34.5201C39.1298 42.5798 31.998 46.7816 24.4007 46.6304C9.67155 45.8333 5.37535 28.7242 15.216 22.432L15.6816 22.9061C15.5338 23.0574 14.899 23.5519 14.0944 25.4918C12.994 27.7546 12.677 29.8449 12.8249 31.3099C13.6075 43.4201 30.0938 45.8333 35.8073 33.8956C42.9399 17.4109 23.7668 0.798001 6.64484 13.5328L6.34913 13.0587C10.7923 5.96942 19.491 2.73707 27.893 4.82739C40.7179 8.21014 47.7009 21.7632 42.6221 34.5201ZM71.6368 15.7956V27.0867C71.6368 31.6115 68.9491 34.9943 64.0394 34.9943C59.1297 34.9943 56.442 31.6124 56.442 27.0867V15.7956H60.3992V26.763C60.3992 29.4991 61.6687 31.1161 64.0394 31.1161C66.4101 31.1161 67.6796 29.5 67.6796 26.763V15.7956H71.6368ZM86.6837 29.3487C86.6837 32.5811 84.1439 34.9943 80.0388 34.9943H73.541V15.9681H79.721C83.3613 15.9681 85.7524 17.7355 85.7524 20.4937C85.7524 22.5841 84.7998 23.8765 83.3817 24.5231C85.2442 25.3202 86.6837 26.7639 86.6837 29.3496V29.3487ZM77.6469 19.6738V23.7031H79.6998C80.9693 23.7031 81.7527 22.9061 81.7527 21.7641C81.7527 20.6433 80.9693 19.825 79.6998 19.825L77.6469 19.6738ZM79.8689 31.2886C81.6049 31.2886 82.5566 30.4907 82.5566 28.8754C82.5566 27.2592 81.6049 26.4622 79.8689 26.4622H77.6469V31.1374L79.8689 31.2886ZM88.271 15.9681H92.2281V34.8439H88.271V15.9673V15.9681ZM101.9 23.7031C105.074 24.8239 106.662 26.2889 106.662 29.1983C106.662 33.0764 103.656 35.3393 100.165 35.3393C96.99 35.3393 94.4501 33.8956 93.5189 31.1374L96.6934 28.7242C97.329 30.4916 98.7463 31.4603 100.334 31.4603C101.603 31.4603 102.556 30.6632 102.556 29.5212C102.556 28.4013 101.773 27.7538 99.2332 26.7851C96.3765 25.6643 94.1544 24.1994 94.1544 21.1395C94.1544 18.0797 96.6934 15.8169 100.186 15.8169C103.043 15.8169 105.265 16.9376 106.217 19.1996L103.043 21.4624C102.408 20.0187 101.455 19.1996 100.037 19.1996C98.7676 19.1996 97.985 19.8463 97.985 20.8158C98.0904 21.9366 99.1908 22.7336 101.9 23.7031ZM126.766 25.4706C126.766 30.9649 122.809 35.1455 117.264 35.1455C111.55 35.1455 107.762 30.9436 107.762 26.1172C107.762 22.8849 109.031 20.4716 110.767 19.0271L110.133 18.3813C111.55 16.9368 114.09 15.7956 117.094 15.7956C122.809 15.6444 126.766 19.9975 126.766 25.4706ZM122.661 25.4706C122.661 22.087 120.608 19.6525 117.264 19.6525C115.359 19.6525 113.942 20.4496 113.137 21.2687L113.772 21.9145C112.82 22.7124 111.868 23.8544 111.868 25.9447C111.868 28.8533 113.921 31.2665 117.264 31.2665C120.587 31.2886 122.661 28.8746 122.661 25.4706ZM132.48 24.3498H140.396V27.4096H132.48V34.8226H128.353V15.9673H141.03V19.8462H132.48V24.3498ZM157.199 19.9975H151.971V34.9951H148.014V19.9975H142.618V15.9681H157.03V19.9975H157.199Z" fill="black"/>
</svg>
