<svg width="160" height="38" viewBox="0 0 160 38" fill="none" xmlns="http://www.w3.org/2000/svg">
<g clip-path="url(#clip0_42_1303)">
<path d="M159.674 8.7613C159.657 10.2016 159.531 11.6317 159.385 13.0651C159.168 15.1912 158.79 17.2849 158.375 19.3769C158.011 21.2153 157.574 23.0385 157.066 24.8423C156.212 27.8767 155.241 30.8728 153.837 33.7075C153.441 34.5075 152.976 35.2723 152.449 35.9932C151.677 37.0537 150.626 37.2908 149.419 37.1319C147.646 36.9016 146.125 36.0612 144.653 35.1163C142.485 33.7245 140.536 32.0531 138.627 30.3349C136.407 28.3428 134.248 26.2847 132.152 24.1634C129.389 21.361 126.768 18.4337 124.661 15.0841C123.799 13.7118 123.083 12.2758 122.682 10.691C122.4 9.58383 122.825 8.47069 123.884 7.63711C125.642 6.25376 127.66 5.3624 129.717 4.55856C133.654 3.01971 137.716 1.91083 141.867 1.12058C143.357 0.829929 144.858 0.600312 146.367 0.432307C147.385 0.327975 148.404 0.240724 149.425 0.170593C150.259 0.109413 151.093 0.0737242 151.921 0.11621C153.351 0.190136 154.776 0.304849 156.161 0.742456C157.993 1.32197 158.904 2.64329 159.283 4.43196C159.585 5.85864 159.695 7.30487 159.673 8.76215L159.674 8.7613Z" fill="#FFD700"/>
<path d="M34.9118 20.8811C37.1933 18.4679 39.3771 16.1524 41.5668 13.8428C42.1684 13.2081 42.7887 12.5886 43.3954 11.9581C43.5042 11.8451 43.601 11.7584 43.7829 11.7593C46.1536 11.7661 48.5243 11.7635 50.9885 11.7635C50.528 12.2496 50.1184 12.6863 49.7037 13.1197L45.2503 17.7762C43.6911 19.4077 42.1344 21.0408 40.5658 22.6646C40.4384 22.7972 40.4239 22.8244 40.5599 22.9671C42.4233 24.9088 44.2698 26.8648 46.1307 28.8107C47.701 30.4524 49.2814 32.0847 50.8577 33.7221C50.8849 33.7501 50.9044 33.7833 50.9324 33.8215C50.8194 33.9218 50.6886 33.8691 50.573 33.8699C48.3127 33.8742 46.0542 33.8682 43.7939 33.8784C43.5322 33.8793 43.3521 33.8096 43.1728 33.6227C40.9066 31.2587 38.6327 28.9025 36.3605 26.5445C35.8745 26.0406 35.3868 25.5384 34.8404 24.9733C34.8404 25.5461 34.8361 26.0338 34.8404 26.5215C34.8625 28.8566 34.8812 31.1916 34.9177 33.5267C34.922 33.8249 34.8591 33.926 34.5294 33.9226C32.7637 33.9056 30.9988 33.9039 29.2339 33.9226C28.8753 33.9277 28.8311 33.7994 28.832 33.5003C28.8388 24.8255 28.8379 16.1507 28.8379 7.47669C28.8379 6.03301 28.8507 4.58933 28.8294 3.14565C28.8235 2.80236 28.9425 2.74798 29.256 2.75053C31.0064 2.76413 32.7577 2.76753 34.509 2.74798C34.8557 2.74373 34.9186 2.84995 34.9177 3.1618C34.9092 8.88043 34.9109 14.5991 34.9109 20.3177V20.8794L34.9118 20.8811ZM75.6483 11.2784C78.6504 11.2877 81.3568 12.1026 83.6969 13.9235C85.3309 15.1956 86.5613 16.7676 87.3108 18.6922C87.7144 19.7314 87.9608 20.7825 88.0789 21.8905C88.3007 23.9826 87.8844 25.9539 86.9871 27.8233C86.173 29.5194 84.9639 30.9325 83.4038 32.0549C82.0356 33.0469 80.4849 33.7587 78.8408 34.1495C78.1295 34.3195 77.3988 34.3738 76.674 34.469C75.8871 34.5727 75.1105 34.5285 74.344 34.435C73.3938 34.3212 72.4599 34.0977 71.5612 33.7688C69.4556 32.9956 67.6686 31.7686 66.2504 30.0725C65.0251 28.6093 64.2085 26.9371 63.8329 25.0745C63.6783 24.3055 63.5483 23.5254 63.5797 22.7437C63.6834 20.1512 64.5204 17.8076 66.1969 15.7683C67.5777 14.0858 69.3069 12.8546 71.3589 12.0745C72.433 11.6658 73.5495 11.3778 74.7196 11.3489C75.0382 11.3421 75.3467 11.2095 75.6483 11.2784ZM82.13 22.923C82.3068 19.5708 79.3769 16.3563 75.3722 16.6257C72.2563 16.8355 69.7921 19.4595 69.5907 22.4361C69.3247 26.3754 72.7049 29.2407 75.8718 29.1795C79.2903 29.114 82.232 26.3881 82.1309 22.9221L82.13 22.923ZM17.4822 29.8151C17.0616 30.3283 16.7532 30.7778 16.3895 31.1899C14.956 32.8154 13.1826 33.892 11.0243 34.2642C9.48518 34.5286 7.90393 34.3941 6.43158 33.8733C4.64547 33.2547 3.23068 32.1926 2.23395 30.6274C1.56522 29.578 1.10212 28.4436 0.944072 27.203C0.624576 24.6904 0.830209 22.1701 0.816613 19.6524C0.806416 17.2732 0.815763 14.8956 0.815763 12.5164C0.815763 12.0236 1.06218 11.7771 1.55587 11.7771C3.20858 11.7771 4.8613 11.7856 6.51316 11.7686C6.81311 11.7669 6.88449 11.8468 6.88279 12.1332C6.86579 14.9101 6.87854 17.687 6.8556 20.4639C6.8471 21.5345 6.84965 22.6052 6.8454 23.6775C6.83945 24.9691 7.12921 26.1749 7.84807 27.2633C8.60688 28.4105 9.70132 29.0733 11.0881 29.25C12.8708 29.4794 14.5057 29.1395 15.8346 27.893C16.7005 27.0807 17.1084 26.027 17.3046 24.8858C17.5324 23.5721 17.4814 22.2474 17.4831 20.9244C17.4856 17.9963 17.489 15.0681 17.4763 12.14C17.4746 11.8341 17.5477 11.7508 17.868 11.7542C19.6337 11.7712 21.3986 11.7695 23.1643 11.755C23.46 11.7525 23.5382 11.8281 23.5365 12.1162C23.528 19.2522 23.528 26.3873 23.5365 33.5233C23.5365 33.8173 23.483 33.9252 23.149 33.9218C21.3833 33.9048 19.6184 33.9065 17.8527 33.9201C17.557 33.9226 17.4729 33.8445 17.4771 33.5547C17.4941 32.3481 17.4839 31.1398 17.4839 29.8142L17.4822 29.8151ZM98.019 15.8193C98.5552 15.012 99.1661 14.2974 99.8825 13.6729C101.264 12.4705 102.811 11.6046 104.702 11.4322C107.736 11.1551 110.415 11.8621 112.494 14.1436C113.589 15.3443 114.148 16.7948 114.434 18.3701C114.719 19.9438 114.644 21.5218 114.636 23.1031C114.621 25.9216 114.634 28.7402 114.63 31.5587C114.63 32.2461 114.601 32.9319 114.608 33.6193C114.611 33.8538 114.539 33.9218 114.299 33.9201C112.491 33.9116 110.682 33.9048 108.875 33.9252C108.524 33.9294 108.569 33.7518 108.57 33.5428C108.576 29.7207 108.601 25.8995 108.573 22.0775C108.563 20.7188 108.305 19.3915 107.45 18.252C106.607 17.1278 105.461 16.5186 104.036 16.4761C103.275 16.454 102.511 16.4081 101.748 16.6121C100.658 16.901 99.7864 17.4669 99.1288 18.3455C98.2043 19.5776 97.9527 20.9907 97.9587 22.4828C97.9723 26.1536 97.9578 29.8244 97.9714 33.4952C97.9731 33.847 97.9035 33.9583 97.5151 33.9524C95.7638 33.9286 94.0117 33.9354 92.2613 33.9481C91.969 33.9507 91.8815 33.881 91.8815 33.587C91.89 26.4374 91.89 19.2887 91.8815 12.14C91.8815 11.8553 91.9511 11.7686 92.2536 11.7703C94.033 11.7848 95.8123 11.7848 97.5924 11.7703C97.8882 11.7686 97.974 11.8434 97.9689 12.1357C97.951 13.2208 97.9604 14.3076 97.9638 15.3936C97.9638 15.5227 97.9238 15.6604 98.0165 15.8201L98.019 15.8193ZM53.7816 18.3642C53.7816 13.3194 53.785 8.27373 53.7731 3.22892C53.7731 2.87459 53.8326 2.74033 54.2438 2.74628C55.9943 2.77177 57.7455 2.76328 59.4968 2.75138C59.7653 2.74968 59.8477 2.80831 59.8477 3.08447C59.8401 13.2438 59.8401 23.4039 59.8477 33.5623C59.8477 33.8487 59.7764 33.9243 59.479 33.9218C57.7138 33.905 55.9486 33.9055 54.1835 33.9235C53.8266 33.9277 53.7748 33.8045 53.7748 33.5003C53.7833 28.4547 53.7816 23.409 53.7816 18.3642Z" fill="black"/>
</g>
<defs>
<clipPath id="clip0_42_1303">
<rect width="159.748" height="37.3878" fill="white"/>
</clipPath>
</defs>
</svg>
