<svg width="159" height="36" viewBox="0 0 159 36" fill="none" xmlns="http://www.w3.org/2000/svg">
<g clip-path="url(#clip0_42_1310)">
<path d="M24.477 24.897C24.8806 26.2132 25.1924 27.4462 25.647 28.6264C25.9317 29.3649 25.9674 29.8925 25.1049 30.1458C20.027 31.6353 14.9584 33.158 9.85579 34.5618C8.35348 34.9747 6.7475 35.2407 5.1959 35.2042C3.63071 35.1668 1.95166 34.9722 0.777344 33.2872C1.2192 32.5428 1.8463 31.6931 2.23717 30.7499C2.55034 29.974 2.70325 29.1427 2.68667 28.3061C2.67478 27.6934 2.32894 27.0672 2.05023 26.4834C1.23874 24.7814 0.94304 23.1185 1.97715 21.3681C2.26096 20.888 2.4445 20.0969 2.23632 19.6372C1.47582 17.959 2.63909 16.6012 2.75295 15.1337C2.92884 12.8666 4.1465 11.2887 5.00132 9.39806C5.79751 7.63743 7.17831 6.92876 8.26935 5.70856C9.70199 4.10683 11.743 3.89015 13.3779 2.83394C13.8376 2.53654 14.559 2.42268 15.1147 2.50765C16.5134 2.72093 17.8534 3.14069 19.2682 2.42693C19.6505 2.23489 20.3371 2.55693 20.8614 2.71753C22.724 3.2877 22.8583 3.22482 23.3596 1.35627C23.4089 1.17273 23.4794 0.995992 23.6901 0.368896C24.4472 1.77094 25.0386 2.85179 25.6173 3.94028C26.484 5.56665 27.9795 3.80943 29.5022 4.8189L28.0101 5.19787C29.3892 5.85896 30.7292 4.69654 31.6172 6.15126L29.3824 7.03498C30.5465 7.60004 31.4532 8.37329 32.3862 8.40643C33.4653 8.44467 34.5674 7.82267 35.6644 7.50402C37.923 6.84974 40.185 6.20395 42.4469 5.55816C44.0971 5.08656 45.7337 4.56228 47.4042 4.17311C48.4825 3.92329 49.6109 3.874 50.7156 3.7355L50.8872 4.202C50.5244 4.48071 50.1905 4.8087 49.7928 5.03133C47.7738 6.16401 45.7931 7.38336 43.6918 8.3512C41.6405 9.29439 39.4593 9.96652 37.3409 10.7746C37.1166 10.8596 36.9467 11.072 36.7359 11.2029C35.6525 11.8716 34.5657 12.5344 33.3566 13.2736C35.1605 16.257 37.1192 19.4596 39.0327 22.686C39.7924 23.9649 40.8342 25.0865 40.2886 26.8794C39.6445 28.9901 38.5357 29.8959 36.2813 29.5323C36.1488 29.511 35.9839 29.4303 35.8905 29.4796C33.5172 30.755 32.0599 30.2911 30.7556 28.018C30.0044 26.7095 29.0332 25.6159 27.2012 25.6601C26.4025 25.6796 25.591 25.2242 24.4778 24.8945L24.477 24.897ZM15.8888 18.4153L15.5982 18.7068C15.2864 18.366 14.8267 18.0737 14.689 17.6744C14.107 15.9894 13.6269 14.2695 13.0983 12.5658C12.9556 12.107 12.7805 11.6566 12.5146 10.9046C11.8688 13.3204 12.4415 16.1474 13.807 18.5292C14.5429 19.8131 15.0408 21.1778 14.8522 22.6996C13.0907 19.8573 11.1295 17.122 10.9791 13.5974C10.6545 14.1786 10.2823 14.8006 10.4226 15.2798C11.042 17.4118 11.811 19.5013 12.5146 21.6103C12.665 22.0606 12.7661 22.528 12.8893 22.9868C10.5984 21.1208 9.87958 18.6532 9.26778 16.0735C9.13437 17.2622 9.28222 18.3932 9.45132 19.5174C9.84049 22.098 11.3224 24.0889 13.0456 25.9626C13.3753 26.3203 13.53 26.831 13.7645 27.272C11.0403 25.9881 9.92292 23.5587 8.54382 21.3069C8.82422 24.9072 10.9774 27.4377 13.5274 29.7489C12.4551 30.2953 12.1611 30.0531 8.37132 25.4952C8.84122 28.1778 10.9961 29.5696 12.0957 31.6438C11.2162 31.241 10.465 30.7159 9.85239 30.0659C9.1998 29.3734 8.67807 28.5619 8.09856 27.8031L7.63461 28.1132C8.51407 29.3878 9.28562 30.7542 10.3036 31.9115C11.2077 32.9396 12.5469 32.9787 13.8571 32.6703C14.7833 32.4528 15.7078 32.2216 16.6629 31.988C16.0605 31.0923 15.6535 30.4856 15.2439 29.8789C17.2169 30.7822 18.5841 31.038 19.3463 30.6462C15.7223 28.301 15.2422 27.8031 15.4223 26.5718C19.8103 29.8356 21.2191 30.3191 23.0605 29.1873C17.3648 27.3417 15.6636 26.1673 15.9848 24.3039C21.8207 27.9169 22.1513 28.0537 23.5814 27.2244C22.1844 26.6619 20.8606 26.2319 19.6412 25.6074C18.472 25.0083 17.2135 24.3999 16.5006 22.9044C18.7558 23.7907 20.677 24.5469 22.5999 25.3006C22.7079 25.1247 22.8141 24.9463 22.922 24.7696C22.4657 24.4849 22.0332 24.1535 21.5505 23.9275C20.2742 23.3293 18.9274 22.8611 17.7149 22.166C17.2118 21.8771 16.9756 21.1421 16.6187 20.6102L16.9289 20.4598C18.093 21.2245 19.258 21.9876 20.4212 22.7523C20.5683 22.5552 20.7127 22.358 20.8589 22.1609C20.0567 21.5185 19.2095 20.9203 18.4669 20.2176C18.0123 19.7885 17.7174 19.1962 17.3503 18.6779L17.7081 18.4442L19.3616 19.2158L19.7423 18.8589L18.0684 16.0718L20.0848 16.8739C20.0219 16.1347 19.9318 15.5976 19.9412 15.0623C19.959 14.0511 19.6811 12.825 20.1595 12.0755C21.1962 10.4483 20.5402 9.05052 20.14 7.53036C18.9283 9.01483 18.6555 10.7466 18.6929 12.5709L18.2901 12.6253L17.4379 9.60624C16.0928 11.4705 16.5796 13.5175 16.849 15.5356L16.3086 15.5985L15.1547 12.2812C14.9031 12.9185 14.5089 13.4079 14.5938 13.7911C14.9456 15.3495 15.4436 16.8756 15.8888 18.4128V18.4153ZM25.534 15.5798L21.412 15.9069C21.3067 16.7227 21.0543 17.7593 21.073 18.7917C21.0934 19.8947 21.1614 21.086 22.5727 21.8941V18.0185H22.86C23.1259 19.4137 23.3927 20.8098 23.6578 22.2068C23.8363 22.1796 24.0147 22.155 24.1906 22.1278L24.4014 19.2897L24.8007 19.2999L26.0277 23.3633L26.3081 23.257L26.5596 21.4276C27.4714 22.6716 28.1699 23.6275 28.9491 24.6922C29.204 24.0889 29.3586 23.7176 29.5583 23.2434C30.1931 24.5605 30.8482 25.6822 31.2816 26.882C31.7999 28.3163 32.9309 29.2705 34.0177 28.9638C33.648 28.335 33.2759 27.7036 32.9045 27.0698C32.5349 26.441 32.167 25.8096 31.7336 25.0704L32.9147 24.1544C33.9047 25.2879 34.7527 26.3976 35.7596 27.3468C36.193 27.7546 37.199 28.1914 37.51 27.9841C38.1796 27.5422 39.0387 26.6466 38.9784 26.0127C38.8169 24.3099 37.6485 23.0752 36.1131 22.2263C34.9923 21.6086 33.8834 20.9713 32.7694 20.3433L33.009 19.9661L34.9592 20.583C34.5012 19.6049 33.0048 19.265 33.9879 17.9046C34.0194 17.8587 33.8452 17.6591 33.7543 17.5418C32.9581 16.5187 32.1585 15.4974 31.341 14.4505L31.9851 13.9288L29.628 13.3144C30.3248 12.9168 30.7632 12.6686 31.211 12.4137C30.5177 12.1537 29.9356 11.8444 29.3145 11.7229C27.7357 11.4119 24.7548 14.1854 25.534 15.5772V15.5798ZM24.0555 3.60974C23.6765 6.30506 23.3112 8.62481 23.0511 10.9564C22.9976 11.4433 23.3282 11.9702 23.482 12.4783C23.9663 12.2166 24.5976 12.0687 24.9095 11.6753C26.4917 9.68696 26.213 5.91419 24.0564 3.60974H24.0555ZM15.2158 3.96917C17.0427 4.40933 17.9392 7.22701 20.4603 5.84026C19.6701 4.55463 17.0071 3.49503 15.2158 3.96917ZM35.9567 10.1509C35.0042 9.43544 34.1528 8.75736 33.2852 9.68356C32.9734 10.0158 32.9912 11.2488 33.2529 11.3941C34.5054 12.0908 35.0688 10.9284 35.9567 10.1509ZM6.7594 28.5219C6.98882 28.4514 7.2191 28.3826 7.44852 28.3129L5.79156 23.7133L5.29022 23.879C5.20015 25.604 5.63861 27.1658 6.76025 28.5211L6.7594 28.5219ZM7.62271 19.4384L7.17661 19.3951C5.85104 20.9314 5.8281 22.7769 7.28622 24.213L7.62271 19.4384ZM40.1306 8.23903C38.4056 7.41905 37.6409 7.62298 36.6909 9.09556C38.1023 9.96737 38.8433 9.79998 40.1306 8.23903ZM17.03 6.35265C15.775 5.36952 14.8607 4.21474 13.1867 4.76367C14.3882 5.33553 14.8343 7.45729 17.03 6.35265ZM6.74835 10.5205C4.46174 11.2003 3.55339 12.548 4.16519 14.4301L6.74835 10.5205ZM6.19603 13.1079C7.63036 12.7511 8.95593 12.4231 10.2815 12.0925C8.08751 10.9692 7.09759 11.2649 6.19603 13.1079ZM14.6848 7.68841L14.7018 7.23211C13.3201 6.198 12.0591 6.36964 11.195 7.68841H14.6848ZM12.4712 9.09131C10.8636 8.62906 9.6527 8.77691 8.67042 10.054C10.1931 10.8069 11.3097 10.3557 12.4712 9.09131ZM5.12368 20.0485C6.04478 18.898 6.89705 17.8307 7.74847 16.7652C5.47292 17.0082 4.89935 17.8588 5.12368 20.0485ZM4.06322 29.1975C4.47364 27.9195 5.12878 26.6568 4.40566 25.089C3.058 26.5336 3.34351 27.854 4.06322 29.1975ZM5.24604 15.8373L5.55364 16.2239L8.60754 14.131C6.7526 13.6756 5.9683 14.7114 5.24604 15.8373ZM20.2428 3.4398L19.9429 3.92414C20.6311 4.53594 21.2973 5.16983 22.0272 5.72895C22.1479 5.82072 22.6458 5.65078 22.7707 5.46809C22.8871 5.29644 22.8387 4.79595 22.6943 4.71183C21.9049 4.24109 21.0653 3.85361 20.2428 3.4398ZM41.0627 6.73842L41.0746 7.21087C42.0934 7.73515 43.1123 8.24498 44.5101 6.73842H41.0627ZM31.7532 10.1781C31.1108 8.52964 30.0843 8.21184 28.7919 8.82024L28.6517 9.30289L31.7532 10.1781ZM8.4359 7.33068C8.27445 7.21342 8.11301 7.09531 7.94986 6.97804L5.8298 9.71415C7.96685 9.59689 8.34498 8.57977 8.4342 7.33068H8.4359ZM6.7322 32.3516L5.62756 33.2642V31.1399C5.07524 32.0355 4.7566 32.5513 4.2952 33.3016L7.2038 33.8905C7.00667 33.2455 6.86646 32.7926 6.7322 32.3516ZM9.42243 7.1106L9.73428 7.47343L12.5035 5.45704C10.5832 5.09081 9.8184 5.83517 9.42243 7.1106ZM21.6984 9.99116C21.8921 9.99116 22.0859 9.99456 22.2779 9.99541V7.01118L21.6992 7.00608V9.99201L21.6984 9.99116ZM3.53979 19.2744C3.70719 18.0049 3.8406 17.0056 4.02414 15.6274C2.47764 17.2792 2.40117 17.9191 3.53979 19.2744ZM7.76292 31.219C8.17249 32.8547 9.50315 33.7936 10.6146 33.3288L7.76377 31.219H7.76292ZM44.7879 5.54031L44.9222 6.33905L47.2139 5.98132L47.0915 5.21232L44.7862 5.54031H44.7879ZM152.182 24.8843C152.799 21.5567 153.502 18.3533 153.942 15.1158C154.155 13.5481 154.816 13.0697 156.29 13.2736C156.776 13.3408 157.279 13.2838 157.976 13.2838L154.724 30.2137C153.483 30.2137 152.359 30.2987 151.263 30.1695C150.861 30.1228 150.341 29.6342 150.184 29.2306C148.83 25.7476 147.545 22.2374 146.237 18.7374C146.144 18.4875 146.038 18.242 145.79 17.6276L143.443 30.1381H139.821C140.843 24.7729 141.846 19.4962 142.857 14.2202C142.903 13.9823 143.013 13.5693 143.122 13.5592C144.516 13.4368 145.917 13.2957 147.31 13.3518C147.653 13.3663 148.105 14.0257 148.275 14.4735C149.523 17.7814 150.712 21.1098 151.922 24.4322C151.966 24.5563 152.055 24.665 152.18 24.8826L152.182 24.8843ZM77.7002 30.0684C77.3986 30.1483 77.3017 30.1916 77.2049 30.1959C73.5689 30.3871 73.5408 30.3973 72.2663 27.0927C71.2092 24.3489 70.2312 21.5771 69.2132 18.8198C69.0976 18.5062 68.9464 18.2063 68.7178 17.6829L66.3896 30.1279H62.8785C62.8649 29.89 62.825 29.7362 62.8522 29.5943C63.8837 24.2215 64.9221 18.8487 65.9953 13.2915C67.3838 13.2915 68.7527 13.2006 70.0952 13.3459C70.5167 13.3909 71.0444 14.007 71.2228 14.4718C72.4473 17.6803 73.591 20.9195 74.7653 24.1476C74.846 24.3685 74.9667 24.5741 75.1315 24.9208C75.8453 20.9951 76.5293 17.2478 77.2287 13.3986H80.8799L77.7002 30.0676V30.0684ZM122.368 20.7742C122.279 27.5855 115.911 32.1316 109.278 30.1169C105.71 29.0335 103.758 25.5377 104.394 21.3732C105.298 15.471 111.359 11.7008 117.223 13.396C120.605 14.3732 122.416 16.9716 122.366 20.7742H122.368ZM114.025 16.1168C112.385 16.1219 111.115 16.8646 110.094 18.0601C108.673 19.7256 108.279 21.68 108.521 23.7873C108.815 26.3407 110.879 27.8286 113.469 27.3757C116.786 26.7953 118.915 23.1083 118.108 19.3441C117.647 17.2002 116.256 16.1015 114.026 16.1177L114.025 16.1168ZM138.073 30.0582C137.834 30.1432 137.788 30.1661 137.739 30.1763C135.232 30.6717 133.57 29.9469 132.648 27.3926C131.945 25.4468 130.727 23.6794 129.657 21.6808C130.777 21.4403 131.804 21.2746 132.792 20.9874C133.409 20.809 134.22 20.5923 134.497 20.1335C134.921 19.435 135.221 18.4621 135.069 17.7024C134.969 17.2053 134.022 16.6538 133.374 16.5298C132.35 16.3352 131.258 16.4788 129.991 16.4788C129.473 19.0144 128.956 21.5287 128.448 24.043C128.132 25.6048 127.733 27.1573 127.554 28.7335C127.418 29.9469 126.904 30.3786 125.705 30.2333C125.06 30.1542 124.399 30.2188 123.499 30.2188C123.976 27.7512 124.412 25.4332 124.873 23.1202C125.448 20.2422 126.083 17.3744 126.607 14.4887C126.775 13.5626 127.141 13.2218 128.103 13.2702C130.233 13.3756 132.375 13.3 134.496 13.4708C136.928 13.6662 138.472 15.1039 138.924 17.3158C139.375 19.5191 138.291 21.8023 136.26 22.8713C135.733 23.15 135.169 23.3599 134.486 23.6615C135.685 25.7977 136.846 27.8685 138.073 30.0582ZM51.4557 13.2889C50.8813 16.3403 50.3443 19.1665 49.82 21.9952C49.701 22.6299 49.5854 23.2698 49.5455 23.9105C49.43 25.8045 50.012 26.8378 51.3852 27.2754C52.9232 27.7665 54.6498 27.266 55.5293 25.8665C56.0805 24.9803 56.477 24.0068 56.7019 22.9877C57.3987 19.831 57.9765 16.6504 58.6172 13.3875H62.5837C61.5946 17.6251 60.9318 21.866 59.5756 25.8818C58.1694 30.0446 52.698 31.8121 48.6159 29.8832C46.348 28.8108 45.2892 26.5837 45.7804 23.3794C46.2545 20.2839 46.908 17.213 47.5563 14.1463C47.626 13.8107 48.1452 13.3765 48.5046 13.328C49.3977 13.2108 50.3179 13.2889 51.4557 13.2889ZM104.434 16.3887C102.413 16.3887 100.565 16.1355 98.821 16.4414C95.202 17.0753 93.1703 20.3043 93.9062 23.8145C94.2996 25.6923 95.8529 27.0774 98.0018 27.2567C99.4438 27.3773 100.904 27.2796 102.36 27.2796C102.471 30.065 102.168 30.4109 99.3605 30.4797C98.3468 30.5052 97.3119 30.5451 96.3185 30.3896C93.1814 29.8993 90.7061 28.4582 89.9371 25.2284C89.0526 21.51 89.8572 18.1502 92.9562 15.6469C96.1554 13.0612 99.9095 12.5939 103.892 13.3357C104.794 13.5039 105.069 13.9662 104.809 14.8176C104.636 15.3835 104.532 15.9707 104.434 16.3887ZM81.3796 30.2188C82.2854 25.525 83.1487 21.041 84.0154 16.5578C84.0434 16.4117 84.0978 16.2698 84.1259 16.1245C84.758 12.904 84.8167 12.8658 88.4076 13.4682C87.7474 16.9232 87.0922 20.3782 86.4252 23.8315C86.0964 25.5394 85.6681 27.232 85.4344 28.951C85.2985 29.9588 84.9144 30.3344 83.8922 30.2341C83.1444 30.161 82.3839 30.2205 81.3787 30.2205L81.3796 30.2188Z" fill="#002882"/>
<path d="M27.5716 15.1037L28.7748 14.4545L27.0686 14.1205C27.7382 13.8971 28.0798 13.7067 28.4324 13.6787C29.9916 13.5538 30.1862 14.8275 30.8048 15.8455C29.5158 16.453 28.4316 16.8235 27.5716 15.1037Z" fill="#002882"/>
</g>
<defs>
<clipPath id="clip0_42_1310">
<rect width="158.049" height="35.6884" fill="white"/>
</clipPath>
</defs>
</svg>
