<svg width="20" height="20" viewBox="0 0 20 20" fill="none" xmlns="http://www.w3.org/2000/svg">
<path d="M6.665 10C6.6652 9.34075 6.86089 8.69637 7.22734 8.14835C7.59378 7.60033 8.11451 7.17329 8.72367 6.92123C9.33283 6.66918 10.0031 6.60343 10.6496 6.73231C11.2961 6.86119 11.8899 7.17891 12.3558 7.64528C12.8218 8.11164 13.139 8.70572 13.2673 9.35236C13.3956 9.999 13.3292 10.6692 13.0766 11.2781C12.824 11.887 12.3965 12.4074 11.8482 12.7733C11.2998 13.1393 10.6552 13.3344 9.996 13.334C9.11238 13.3332 8.26524 12.9816 7.6408 12.3564C7.01636 11.7312 6.66474 10.8836 6.665 10ZM4.863 10C4.85351 10.6802 4.97928 11.3554 5.233 11.9866C5.48672 12.6177 5.86334 13.1922 6.34097 13.6765C6.8186 14.1609 7.38772 14.5455 8.01527 14.808C8.64281 15.0705 9.31626 15.2057 9.9965 15.2057C10.6767 15.2057 11.3502 15.0705 11.9777 14.808C12.6053 14.5455 13.1744 14.1609 13.652 13.6765C14.1297 13.1922 14.5063 12.6177 14.76 11.9866C15.0137 11.3554 15.1395 10.6802 15.13 10C15.1395 9.31983 15.0137 8.64456 14.76 8.01341C14.5063 7.38226 14.1297 6.80783 13.652 6.32348C13.1744 5.83914 12.6053 5.45454 11.9777 5.19204C11.3502 4.92953 10.6767 4.79435 9.9965 4.79435C9.31626 4.79435 8.64281 4.92953 8.01527 5.19204C7.38772 5.45454 6.8186 5.83914 6.34097 6.32348C5.86334 6.80783 5.48672 7.38226 5.233 8.01341C4.97928 8.64456 4.85351 9.31983 4.863 10ZM14.133 4.662C14.133 4.89934 14.2034 5.13134 14.3352 5.32868C14.4671 5.52602 14.6545 5.67983 14.8738 5.77066C15.0931 5.86148 15.3343 5.88524 15.5671 5.83894C15.7999 5.79264 16.0137 5.67835 16.1815 5.51053C16.3494 5.34271 16.4636 5.12889 16.5099 4.89611C16.5562 4.66333 16.5325 4.42205 16.4417 4.20278C16.3508 3.98351 16.197 3.79609 15.9997 3.66424C15.8023 3.53238 15.5703 3.462 15.333 3.462C15.0147 3.462 14.7095 3.58843 14.4845 3.81347C14.2594 4.03852 14.133 4.34374 14.133 4.662ZM5.958 18.14C4.983 18.095 4.453 17.933 4.101 17.796C3.66672 17.6355 3.27381 17.3799 2.951 17.048C2.61852 16.7257 2.36286 16.3326 2.203 15.898C2.066 15.546 1.903 15.016 1.859 14.041C1.811 12.987 1.801 12.671 1.801 10.001C1.801 7.33 1.811 7.014 1.86 5.959C1.904 4.984 2.067 4.455 2.203 4.102C2.385 3.635 2.601 3.302 2.951 2.952C3.301 2.602 3.633 2.385 4.101 2.204C4.453 2.066 4.983 1.904 5.958 1.86C7.011 1.811 7.328 1.801 9.996 1.801C12.665 1.801 12.982 1.811 14.036 1.86C15.011 1.904 15.54 2.068 15.893 2.204C16.36 2.384 16.693 2.602 17.043 2.952C17.393 3.302 17.609 3.635 17.791 4.102C17.928 4.454 18.091 4.984 18.134 5.959C18.183 7.014 18.193 7.329 18.193 10C18.193 12.67 18.183 12.986 18.135 14.041C18.09 15.016 17.927 15.546 17.791 15.898C17.6307 16.3324 17.3751 16.7253 17.043 17.048C16.693 17.398 16.36 17.614 15.893 17.796C15.541 17.933 15.011 18.096 14.036 18.14C12.983 18.188 12.666 18.198 9.996 18.198C7.326 18.198 7.011 18.188 5.958 18.14ZM5.875 0.0600004C4.811 0.109 4.083 0.278 3.448 0.525C2.78125 0.776188 2.17724 1.16965 1.678 1.678C1.16859 2.17735 0.774704 2.78218 0.524 3.45C0.277 4.086 0.108 4.813 0.0600004 5.877C0.0100004 6.943 0 7.284 0 10C0 12.716 0.0100004 13.057 0.0600004 14.123C0.108 15.187 0.277 15.914 0.524 16.55C0.774598 17.2173 1.16813 17.8218 1.677 18.321C2.17665 18.8296 2.78096 19.2233 3.448 19.475C4.084 19.722 4.811 19.891 5.875 19.939C6.941 19.988 7.281 20 9.996 20C12.711 20 13.052 19.989 14.118 19.94C15.182 19.891 15.909 19.722 16.545 19.475C17.2117 19.2232 17.8156 18.8294 18.315 18.321C18.8238 17.822 19.2177 17.2179 19.469 16.551C19.716 15.914 19.885 15.187 19.933 14.123C19.981 13.056 19.993 12.716 19.993 10C19.993 7.284 19.981 6.943 19.933 5.877C19.884 4.813 19.716 4.085 19.469 3.45C19.2176 2.78308 18.8241 2.17879 18.316 1.679C17.8171 1.16999 17.213 0.776135 16.546 0.525C15.909 0.278 15.182 0.108 14.119 0.0609999C13.053 0.0119999 12.712 0 9.996 0C7.28 0 6.941 0.0110004 5.875 0.0600004Z" fill="white"/>
</svg>
