<svg width="24" height="24" viewBox="0 0 24 24" fill="none" xmlns="http://www.w3.org/2000/svg">
<path d="M5.21 24H0.085V6.857H5.21V24ZM24 24H18.875V14.842C18.875 12.456 18.028 11.268 16.349 11.268C15.019 11.268 14.174 11.933 13.751 13.265V24H8.626C8.626 24 8.695 8.571 8.626 6.857H12.671L12.984 10.286H13.09C14.14 8.571 15.82 7.409 18.122 7.409C19.873 7.409 21.289 7.898 22.37 9.125C23.458 10.355 24 12.003 24 14.319V24ZM2.648 5.143C4.11 5.143 5.295 3.992 5.295 2.571C5.295 1.151 4.11 0 2.648 0C1.185 0 0 1.151 0 2.571C0 3.991 1.185 5.143 2.648 5.143Z" fill="white"/>
</svg>
