<svg width="75" height="32" viewBox="0 0 75 32" fill="none" xmlns="http://www.w3.org/2000/svg">
<path d="M29.5124 15.9999C29.5278 18.0739 27.9341 18.8147 25.7677 18.8147C23.6014 18.8147 22.0232 18.0739 22.0077 15.9999C21.9922 13.9259 23.6014 13.1851 25.7677 13.1851C27.9341 13.1851 29.4969 13.9259 29.5124 15.9999Z" fill="#4D4D4D"/>
<path fill-rule="evenodd" clip-rule="evenodd" d="M0 0H32.1429L42.8571 16.16L32.1429 32H0V0ZM11.5051 21.3333C8.6115 21.3333 6.32143 19.5555 6.32143 16C6.32143 12.7407 8.45679 10.6667 12.2788 10.6667C15.5282 10.6667 17.1684 12.074 17.7254 14.3703H15.1569C14.6462 13.437 14.0582 13.037 12.2788 13.037C9.97318 13.037 8.98286 13.7778 8.98286 16C8.98286 18.2222 9.97318 18.9778 12.2788 18.9778C13.7445 18.9778 14.5511 18.6683 14.9417 17.6297H11.6598V15.4667H17.9111V21.3333H15.7448V18.8367C14.9866 20.5824 13.5465 21.3333 11.5051 21.3333ZM19.3772 16C19.3772 19.2593 21.7446 21.3333 25.7677 21.3333C29.7909 21.3333 32.1429 19.2593 32.1429 16C32.1429 12.7407 29.7909 10.6667 25.7677 10.6667C21.7446 10.6667 19.3772 12.7407 19.3772 16ZM75 0H42.8571V32H75V0ZM55.0287 21.3333V10.6667H52.3929V21.3333H55.0287ZM66.9643 13.2572V10.6667H56.7312V13.2572H60.5298V21.3333H63.1656V13.2572H66.9643Z" fill="#4D4D4D"/>
</svg>
