<svg width="24" height="17" viewBox="0 0 24 17" fill="none" xmlns="http://www.w3.org/2000/svg">
<path fill-rule="evenodd" clip-rule="evenodd" d="M21.377 0.479C22.409 0.743 23.223 1.519 23.499 2.506C24 4.294 24 8.025 24 8.025C24 8.025 24 11.755 23.498 13.543C23.222 14.53 22.409 15.274 21.377 15.538C19.505 16.017 12 16.017 12 16.017C12 16.017 4.495 16.017 2.623 15.538C1.591 15.274 0.778 14.53 0.502 13.543C-1.19209e-07 11.755 0 8.025 0 8.025C0 8.025 -1.19209e-07 4.295 0.502 2.506C0.777 1.52 1.591 0.743 2.623 0.479C4.495 8.9407e-08 12 0 12 0C12 0 19.505 8.9407e-08 21.377 0.479ZM9.546 4.638V11.412L15.819 8.025L9.546 4.638Z" fill="white"/>
</svg>
