<svg width="173" height="36" viewBox="0 0 173 36" fill="none" xmlns="http://www.w3.org/2000/svg">
<mask id="mask0_43_299" style="mask-type:luminance" maskUnits="userSpaceOnUse" x="0" y="0" width="18" height="18">
<path d="M0 0H18V18H0V0Z" fill="white"/>
</mask>
<g mask="url(#mask0_43_299)">
<path d="M18 6.94906L11.46 6.52706L8.994 0.33606L6.526 6.52606L0 6.95006L5.006 11.2101L3.361 17.6651L8.993 14.1001L14.625 17.6651L12.98 11.2101L18 6.94906Z" fill="#FF6B0A"/>
<path d="M12.9802 11.2101L14.6252 17.6641L8.99316 14.1001V0.33606L11.4612 6.52606L18.0002 6.95006L12.9802 11.2101Z" fill="#FF6B0A"/>
</g>
<mask id="mask1_43_299" style="mask-type:luminance" maskUnits="userSpaceOnUse" x="26" y="0" width="18" height="18">
<path d="M26 0H44V18H26V0Z" fill="white"/>
</mask>
<g mask="url(#mask1_43_299)">
<path d="M44 6.94906L37.46 6.52706L34.994 0.33606L32.526 6.52606L26 6.95006L31.006 11.2101L29.361 17.6651L34.993 14.1001L40.625 17.6651L38.98 11.2101L44 6.94906Z" fill="#FF6B0A"/>
<path d="M38.9802 11.2101L40.6252 17.6641L34.9932 14.1001V0.33606L37.4612 6.52606L44.0002 6.95006L38.9802 11.2101Z" fill="#FF6B0A"/>
</g>
<mask id="mask2_43_299" style="mask-type:luminance" maskUnits="userSpaceOnUse" x="52" y="0" width="18" height="18">
<path d="M52 0H70V18H52V0Z" fill="white"/>
</mask>
<g mask="url(#mask2_43_299)">
<path d="M70 6.94906L63.46 6.52706L60.994 0.33606L58.526 6.52606L52 6.95006L57.006 11.2101L55.361 17.6651L60.993 14.1001L66.625 17.6651L64.98 11.2101L70 6.94906Z" fill="#FF6B0A"/>
<path d="M64.9802 11.2101L66.6252 17.6641L60.9932 14.1001V0.33606L63.4612 6.52606L70.0002 6.95006L64.9802 11.2101Z" fill="#FF6B0A"/>
</g>
<mask id="mask3_43_299" style="mask-type:luminance" maskUnits="userSpaceOnUse" x="78" y="0" width="18" height="18">
<path d="M78 0H96V18H78V0Z" fill="white"/>
</mask>
<g mask="url(#mask3_43_299)">
<path d="M96 6.94906L89.46 6.52706L86.994 0.33606L84.526 6.52606L78 6.95006L83.006 11.2101L81.361 17.6651L86.993 14.1001L92.625 17.6651L90.98 11.2101L96 6.94906Z" fill="#FF6B0A"/>
<path d="M90.9802 11.2101L92.6252 17.6641L86.9932 14.1001V0.33606L89.4612 6.52606L96.0002 6.95006L90.9802 11.2101Z" fill="#FF6B0A"/>
</g>
<g clip-path="url(#clip0_43_299)">
<mask id="mask4_43_299" style="mask-type:luminance" maskUnits="userSpaceOnUse" x="104" y="0" width="18" height="18">
<path d="M104 0H122V18H104V0Z" fill="white"/>
</mask>
<g mask="url(#mask4_43_299)">
<path d="M122 6.94906L115.46 6.52706L112.994 0.33606L110.526 6.52606L104 6.95006L109.006 11.2101L107.361 17.6651L112.993 14.1001L118.625 17.6651L116.98 11.2101L122 6.94906Z" fill="#FF6B0A"/>
<path d="M116.98 11.2101L118.625 17.6641L112.993 14.1001V0.33606L115.461 6.52606L122 6.95006L116.98 11.2101Z" fill="#D9D9D9"/>
</g>
</g>
<path d="M134.496 13.648V11.904L139.776 4.8H142.496L137.328 11.904L136.064 11.536H144.88V13.648H134.496ZM140.528 16V13.648L140.608 11.536V9.44H143.056V16H140.528ZM147.44 16.128C147.013 16.128 146.645 15.984 146.336 15.696C146.037 15.3973 145.888 15.0187 145.888 14.56C145.888 14.1013 146.037 13.7333 146.336 13.456C146.645 13.168 147.013 13.024 147.44 13.024C147.877 13.024 148.245 13.168 148.544 13.456C148.842 13.7333 148.992 14.1013 148.992 14.56C148.992 15.0187 148.842 15.3973 148.544 15.696C148.245 15.984 147.877 16.128 147.44 16.128ZM153.963 16.192C153.185 16.192 152.411 16.0907 151.643 15.888C150.886 15.6747 150.235 15.376 149.691 14.992L150.715 13.008C151.142 13.3173 151.633 13.5627 152.187 13.744C152.753 13.9253 153.323 14.016 153.899 14.016C154.55 14.016 155.062 13.888 155.435 13.632C155.809 13.376 155.995 13.0187 155.995 12.56C155.995 12.272 155.921 12.016 155.771 11.792C155.622 11.568 155.355 11.3973 154.971 11.28C154.598 11.1627 154.07 11.104 153.387 11.104H150.523L151.099 4.8H157.931V6.88H152.027L153.371 5.696L152.971 10.192L151.627 9.008H153.995C155.105 9.008 155.995 9.16267 156.667 9.472C157.35 9.77067 157.846 10.1813 158.155 10.704C158.465 11.2267 158.619 11.8187 158.619 12.48C158.619 13.1413 158.454 13.7547 158.123 14.32C157.793 14.8747 157.281 15.328 156.587 15.68C155.905 16.0213 155.03 16.192 153.963 16.192ZM158.647 17.6L163.927 2.528H164.967L159.687 17.6H158.647ZM168.228 16.084C167.528 16.084 166.861 15.972 166.226 15.748C165.592 15.5147 165.088 15.2067 164.714 14.824L165.204 14.026C165.512 14.3527 165.932 14.6233 166.464 14.838C167.006 15.0527 167.589 15.16 168.214 15.16C169.045 15.16 169.675 14.978 170.104 14.614C170.543 14.2407 170.762 13.7553 170.762 13.158C170.762 12.738 170.66 12.3787 170.454 12.08C170.258 11.772 169.922 11.534 169.446 11.366C168.97 11.198 168.317 11.114 167.486 11.114H165.4L165.904 6.2H171.266V7.096H166.31L166.828 6.606L166.394 10.722L165.876 10.218H167.71C168.7 10.218 169.493 10.3393 170.09 10.582C170.688 10.8247 171.117 11.1653 171.378 11.604C171.649 12.0333 171.784 12.5373 171.784 13.116C171.784 13.6667 171.654 14.1707 171.392 14.628C171.131 15.076 170.739 15.4307 170.216 15.692C169.694 15.9533 169.031 16.084 168.228 16.084Z" fill="black"/>
<defs>
<clipPath id="clip0_43_299">
<rect width="18" height="18" fill="white" transform="translate(104)"/>
</clipPath>
</defs>
</svg>
