<svg width="157" height="36" viewBox="0 0 157 36" fill="none" xmlns="http://www.w3.org/2000/svg">
<mask id="mask0_43_257" style="mask-type:luminance" maskUnits="userSpaceOnUse" x="0" y="0" width="18" height="18">
<path d="M0 0H18V18H0V0Z" fill="white"/>
</mask>
<g mask="url(#mask0_43_257)">
<path d="M18 6.94906L11.46 6.52706L8.994 0.33606L6.526 6.52606L0 6.95006L5.006 11.2101L3.361 17.6651L8.993 14.1001L14.625 17.6651L12.98 11.2101L18 6.94906Z" fill="#FF6B0A"/>
<path d="M12.9802 11.2101L14.6252 17.6641L8.99316 14.1001V0.33606L11.4612 6.52606L18.0002 6.95006L12.9802 11.2101Z" fill="#FF6B0A"/>
</g>
<mask id="mask1_43_257" style="mask-type:luminance" maskUnits="userSpaceOnUse" x="26" y="0" width="18" height="18">
<path d="M26 0H44V18H26V0Z" fill="white"/>
</mask>
<g mask="url(#mask1_43_257)">
<path d="M44 6.94906L37.46 6.52706L34.994 0.33606L32.526 6.52606L26 6.95006L31.006 11.2101L29.361 17.6651L34.993 14.1001L40.625 17.6651L38.98 11.2101L44 6.94906Z" fill="#FF6B0A"/>
<path d="M38.9802 11.2101L40.6252 17.6641L34.9932 14.1001V0.33606L37.4612 6.52606L44.0002 6.95006L38.9802 11.2101Z" fill="#FF6B0A"/>
</g>
<mask id="mask2_43_257" style="mask-type:luminance" maskUnits="userSpaceOnUse" x="52" y="0" width="18" height="18">
<path d="M52 0H70V18H52V0Z" fill="white"/>
</mask>
<g mask="url(#mask2_43_257)">
<path d="M70 6.94906L63.46 6.52706L60.994 0.33606L58.526 6.52606L52 6.95006L57.006 11.2101L55.361 17.6651L60.993 14.1001L66.625 17.6651L64.98 11.2101L70 6.94906Z" fill="#FF6B0A"/>
<path d="M64.9802 11.2101L66.6252 17.6641L60.9932 14.1001V0.33606L63.4612 6.52606L70.0002 6.95006L64.9802 11.2101Z" fill="#FF6B0A"/>
</g>
<mask id="mask3_43_257" style="mask-type:luminance" maskUnits="userSpaceOnUse" x="78" y="0" width="18" height="18">
<path d="M78 0H96V18H78V0Z" fill="white"/>
</mask>
<g mask="url(#mask3_43_257)">
<path d="M96 6.94906L89.46 6.52706L86.994 0.33606L84.526 6.52606L78 6.95006L83.006 11.2101L81.361 17.6651L86.993 14.1001L92.625 17.6651L90.98 11.2101L96 6.94906Z" fill="#FF6B0A"/>
<path d="M90.9802 11.2101L92.6252 17.6641L86.9932 14.1001V0.33606L89.4612 6.52606L96.0002 6.95006L90.9802 11.2101Z" fill="#FF6B0A"/>
</g>
<mask id="mask4_43_257" style="mask-type:luminance" maskUnits="userSpaceOnUse" x="104" y="0" width="18" height="18">
<path d="M104 0H122V18H104V0Z" fill="white"/>
</mask>
<g mask="url(#mask4_43_257)">
<path d="M122 6.94906L115.46 6.52706L112.994 0.33606L110.526 6.52606L104 6.95006L109.006 11.2101L107.361 17.6651L112.993 14.1001L118.625 17.6651L116.98 11.2101L122 6.94906Z" fill="#FF6B0A"/>
<path d="M116.98 11.2101L118.625 17.6641L112.993 14.1001V0.33606L115.461 6.52606L122 6.95006L116.98 11.2101Z" fill="#FF6B0A"/>
</g>
<path d="M138.432 16.192C137.653 16.192 136.88 16.0907 136.112 15.888C135.355 15.6747 134.704 15.376 134.16 14.992L135.184 13.008C135.611 13.3173 136.101 13.5627 136.656 13.744C137.221 13.9253 137.792 14.016 138.368 14.016C139.019 14.016 139.531 13.888 139.904 13.632C140.277 13.376 140.464 13.0187 140.464 12.56C140.464 12.272 140.389 12.016 140.24 11.792C140.091 11.568 139.824 11.3973 139.44 11.28C139.067 11.1627 138.539 11.104 137.856 11.104H134.992L135.568 4.8H142.4V6.88H136.496L137.84 5.696L137.44 10.192L136.096 9.008H138.464C139.573 9.008 140.464 9.16267 141.136 9.472C141.819 9.77067 142.315 10.1813 142.624 10.704C142.933 11.2267 143.088 11.8187 143.088 12.48C143.088 13.1413 142.923 13.7547 142.592 14.32C142.261 14.8747 141.749 15.328 141.056 15.68C140.373 16.0213 139.499 16.192 138.432 16.192ZM143.116 17.6L148.396 2.528H149.436L144.156 17.6H143.116ZM152.697 16.084C151.997 16.084 151.33 15.972 150.695 15.748C150.06 15.5147 149.556 15.2067 149.183 14.824L149.673 14.026C149.981 14.3527 150.401 14.6233 150.933 14.838C151.474 15.0527 152.058 15.16 152.683 15.16C153.514 15.16 154.144 14.978 154.573 14.614C155.012 14.2407 155.231 13.7553 155.231 13.158C155.231 12.738 155.128 12.3787 154.923 12.08C154.727 11.772 154.391 11.534 153.915 11.366C153.439 11.198 152.786 11.114 151.955 11.114H149.869L150.373 6.2H155.735V7.096H150.779L151.297 6.606L150.863 10.722L150.345 10.218H152.179C153.168 10.218 153.962 10.3393 154.559 10.582C155.156 10.8247 155.586 11.1653 155.847 11.604C156.118 12.0333 156.253 12.5373 156.253 13.116C156.253 13.6667 156.122 14.1707 155.861 14.628C155.6 15.076 155.208 15.4307 154.685 15.692C154.162 15.9533 153.5 16.084 152.697 16.084Z" fill="black"/>
</svg>
