<svg width="34" height="24" viewBox="0 0 34 24" fill="none" xmlns="http://www.w3.org/2000/svg">
<path d="M0.216639 22.36C0.0543732 22.5645 -0.0214857 22.8244 0.00526798 23.0841C0.0320217 23.3438 0.159266 23.5827 0.359819 23.7498C0.560371 23.917 0.818328 23.999 1.07858 23.9785C1.33883 23.958 1.58075 23.8365 1.75264 23.64L0.216639 22.36ZM10.9846 11L11.6626 10.265L10.8896 9.55204L10.2166 10.36L10.9846 11ZM17.4846 17L16.8066 17.735L17.5356 18.408L18.2146 17.684L17.4846 17ZM33.4846 0.96804C33.4805 0.836697 33.4505 0.707457 33.3964 0.587708C33.3423 0.46796 33.2651 0.360051 33.1693 0.270151C33.0734 0.180251 32.9608 0.110122 32.8378 0.063775C32.7149 0.0174275 32.584 -0.00423029 32.4526 3.98612e-05L23.4566 0.29004C23.1916 0.298659 22.9408 0.41223 22.7594 0.605768C22.5781 0.799305 22.481 1.05696 22.4896 1.32204C22.4983 1.58712 22.6118 1.83793 22.8054 2.01927C22.9989 2.20062 23.2566 2.29766 23.5216 2.28904L31.5176 2.03104L31.7756 10.027C31.7843 10.2921 31.8978 10.5429 32.0914 10.7243C32.2849 10.9056 32.5426 11.0027 32.8076 10.994C33.0727 10.9854 33.3235 10.8719 33.5049 10.6783C33.6862 10.4848 33.7833 10.2271 33.7746 9.96204L33.4846 0.96804ZM1.75264 23.64L11.7516 11.64L10.2156 10.36L0.216639 22.36L1.75264 23.64ZM10.3056 11.735L16.8056 17.735L18.1616 16.265L11.6616 10.265L10.3056 11.735ZM18.2146 17.684L33.2136 1.68404L31.7546 0.31604L16.7546 16.316L18.2146 17.684Z" fill="white"/>
</svg>
