<svg width="31" height="25" viewBox="0 0 31 25" fill="none" xmlns="http://www.w3.org/2000/svg">
<path d="M7.5 5H2C1.73478 5 1.48043 5.10536 1.29289 5.29289C1.10536 5.48043 1 5.73478 1 6V22.5C1 22.7652 1.10536 23.0196 1.29289 23.2071C1.48043 23.3946 1.73478 23.5 2 23.5H28.5C28.7652 23.5 29.0196 23.3946 29.2071 23.2071C29.3946 23.0196 29.5 22.7652 29.5 22.5V6C29.5 5.73478 29.3946 5.48043 29.2071 5.29289C29.0196 5.10536 28.7652 5 28.5 5H23.5M7.5 5C7.5 1 7.5 1 15.5 1C23.5 1 23.5 1 23.5 5M7.5 5H23.5" stroke="white" stroke-width="2" stroke-linecap="round"/>
</svg>
