<svg width="40" height="26" viewBox="0 0 40 26" fill="none" xmlns="http://www.w3.org/2000/svg">
<g clip-path="url(#clip0_42_1142)">
<path d="M7 15.25L3 19.25L29 24.25L37 16.25L33.5 15.25" stroke="white" stroke-width="2" stroke-linecap="round"/>
<path d="M6.75 10.5L3 14.25L29 19.25L33 15.25L37 11.25L33 10.5" stroke="white" stroke-width="2" stroke-linecap="round"/>
<path d="M10.5 1.75L3 9.25L29 14.25L37 6.25L10.5 1.75Z" stroke="white" stroke-width="2" stroke-linecap="round"/>
<path d="M19.5 11.75C22.5376 11.75 25 9.95914 25 7.75C25 5.54086 22.5376 3.75 19.5 3.75C16.4624 3.75 14 5.54086 14 7.75C14 9.95914 16.4624 11.75 19.5 11.75Z" stroke="white" stroke-width="2"/>
</g>
<defs>
<clipPath id="clip0_42_1142">
<rect width="40" height="26" fill="white"/>
</clipPath>
</defs>
</svg>
