<svg width="30" height="30" viewBox="0 0 30 30" fill="none" xmlns="http://www.w3.org/2000/svg">
<g clip-path="url(#clip0_42_1151)">
<path d="M29 15C29 7.268 22.732 1 15 1M29 15C28.6 12.6 24.5 14 22.5 15C20.667 15.5 16.7 16.1 15.5 14.5C14 12.5 17 11.5 11 10C6.2 8.8 11.667 3.5 15 1M29 15C29 21.158 25.024 26.387 19.5 28.261M15 1C9.907 1 5.45 3.72 3 7.785M19.5 28.261C18.088 28.741 16.574 28.999 15 28.999C7.947 28.999 2.112 23.784 1.142 16.999M19.5 28.261C20 26.174 20.2 22.1 17 22.5C13 23 13 19.5 12.5 19.5C12 19.5 4.5 17 4 23M3 7.785C1.73 9.892 1 12.36 1 15C1 15.679 1.048 16.346 1.142 16.999M3 7.785C3.833 8.19 5.5 9.6 5.5 12C5.5 15 2.5 13 2.5 15C2.5 16.6 1.595 16.999 1.142 16.999" stroke="white" stroke-width="2"/>
</g>
<defs>
<clipPath id="clip0_42_1151">
<rect width="30" height="30" fill="white"/>
</clipPath>
</defs>
</svg>
