<svg width="38" height="28" viewBox="0 0 38 28" fill="none" xmlns="http://www.w3.org/2000/svg">
<path fill-rule="evenodd" clip-rule="evenodd" d="M6.69246 7.45539C6.57246 7.53039 6.45046 7.59739 6.32646 7.65439C5.67646 7.95439 4.96946 8.01339 4.17846 7.91739C2.16146 7.67339 0.985458 6.33339 1.19446 4.60439C1.47146 2.31839 3.36646 0.91639 5.77446 1.20839C6.51446 1.29839 7.15446 1.54239 7.63146 1.91239C7.78146 2.02939 7.91446 2.15739 8.02946 2.29739C8.16546 2.46339 8.27546 2.64539 8.35746 2.84139L6.62746 3.88639C6.56309 3.73092 6.47579 3.58598 6.36846 3.45639C6.14146 3.18639 5.82846 3.01639 5.41846 2.96639C4.38846 2.84139 3.56346 3.57139 3.42346 4.73339C3.33046 5.49539 3.79846 6.07039 4.60746 6.16839C5.01646 6.21839 5.42946 6.12839 5.84046 5.84339C5.94346 5.77139 6.04546 5.68839 6.14846 5.59139L7.29046 6.98339C7.13959 7.12728 6.97813 7.25966 6.80746 7.37939C6.76961 7.40546 6.73127 7.43079 6.69246 7.45539ZM8.08046 7.80639C8.03308 7.77348 7.98673 7.73913 7.94146 7.70339L8.98346 6.18939C9.09346 6.27239 9.20546 6.34939 9.31846 6.41939C9.85895 6.76181 10.4685 6.98037 11.1035 7.05939C11.6705 7.12739 11.9855 7.01539 12.0135 6.78239C12.0435 6.54239 11.6805 6.39039 11.2065 6.20739L11.1215 6.17439L11.0675 6.15439C10.5755 5.96439 9.99946 5.73439 9.61446 5.34839C9.51207 5.2465 9.42454 5.1307 9.35446 5.00439C9.20712 4.72858 9.15242 4.41268 9.19846 4.10339C9.21702 3.94582 9.25085 3.79042 9.29946 3.63939C9.38346 3.38339 9.50846 3.15339 9.67146 2.95239C10.2615 2.22839 11.3535 1.88439 12.7845 2.05739C13.2645 2.11539 13.7135 2.21939 14.1125 2.36139C14.3405 2.44339 14.5525 2.53739 14.7455 2.64439C14.8935 2.72639 15.0285 2.81439 15.1515 2.91039L14.1685 4.41239C14.0153 4.28968 13.8505 4.18218 13.6765 4.09139C13.2915 3.89147 12.8733 3.76338 12.4425 3.71339C11.8005 3.63539 11.4595 3.81139 11.4325 4.03339C11.4005 4.29839 11.8105 4.45439 12.3295 4.64739L12.3485 4.65439L12.3785 4.66439C12.7545 4.80439 13.1795 4.96539 13.5325 5.20039C13.8085 5.38539 14.0405 5.61539 14.1685 5.91739C14.2585 6.13139 14.2975 6.38239 14.2615 6.67739C14.0855 8.12739 12.7035 8.95039 10.6775 8.70439C10.0917 8.63574 9.51723 8.49154 8.96846 8.27539C8.73047 8.18087 8.50041 8.06751 8.28046 7.93639C8.22069 7.90046 8.162 7.86278 8.10446 7.82339L8.08046 7.80639ZM7.83146 5.79839L8.19146 5.27539C8.08429 5.00087 8.02509 4.70997 8.01646 4.41539L7.13346 4.94739L7.83146 5.79839ZM5.91446 0.0463912C7.19446 0.201391 8.43546 0.77139 9.13646 1.82639C9.31084 1.67263 9.50011 1.53662 9.70146 1.42039C10.6035 0.89739 11.7315 0.75139 12.9245 0.89639C14.0225 1.02839 15.0885 1.37839 15.8695 1.98639L16.3875 2.38839C16.4566 2.34195 16.5273 2.29793 16.5995 2.25639C17.5015 1.73339 18.6295 1.58639 19.8225 1.73139C20.9195 1.86439 21.9865 2.21439 22.7675 2.82139L23.6185 3.48439L21.9835 5.98239C22.2625 6.44639 22.3985 7.00839 22.3205 7.65439C22.2619 8.17806 22.0792 8.68018 21.7875 9.11901C21.4959 9.55784 21.1036 9.92069 20.6435 10.1774C19.7435 10.6934 18.6195 10.8454 17.4345 10.7024C16.1195 10.5424 14.9005 10.0804 14.1135 9.45639L13.8725 9.26639C13.8306 9.29222 13.7883 9.31722 13.7455 9.34139C12.8455 9.85839 11.7225 10.0104 10.5365 9.86639C9.22146 9.70639 8.00246 9.24439 7.21546 8.62139L7.13246 8.55539C6.16546 9.10239 5.11946 9.21039 4.03746 9.07939C2.80746 8.92939 1.72546 8.43139 0.979457 7.59739C0.221457 6.75039 -0.110543 5.64239 0.032457 4.46339C0.207457 3.02039 0.906456 1.80139 1.98846 0.99939C3.06646 0.20139 4.44946 -0.130609 5.91446 0.0463912ZM15.1775 8.77239C15.06 8.70187 14.9471 8.62406 14.8395 8.53939L15.8805 7.02539C15.9915 7.10739 16.1035 7.18539 16.2165 7.25539C16.7569 7.59787 17.3665 7.81643 18.0015 7.89539C18.5675 7.96339 18.8835 7.85039 18.9115 7.61839C18.9405 7.37839 18.5785 7.22539 18.1045 7.04239L18.0195 7.01039L17.9655 6.99039C17.4735 6.80039 16.8965 6.57039 16.5125 6.18339C16.4102 6.08178 16.3227 5.96632 16.2525 5.84039C16.1049 5.56429 16.0502 5.24801 16.0965 4.93839C16.2755 3.46139 17.6285 2.64439 19.6815 2.89339C20.1615 2.95139 20.6115 3.05439 21.0095 3.19739C21.2385 3.27839 21.4505 3.37339 21.6435 3.47939C21.7905 3.56139 21.9265 3.65039 22.0495 3.74539L21.0655 5.24839C20.9127 5.12532 20.7482 5.01747 20.5745 4.92639C20.1892 4.72664 19.7706 4.59888 19.3395 4.54939C18.6995 4.47139 18.3565 4.64639 18.3295 4.86939C18.2975 5.13439 18.7085 5.28939 19.2265 5.48239L19.2465 5.48939L19.2765 5.50039C19.6515 5.64039 20.0765 5.80039 20.4295 6.03639C20.7065 6.22039 20.9385 6.45139 21.0665 6.75239C21.1565 6.96739 21.1945 7.21739 21.1595 7.51339C20.9835 8.96339 19.6015 9.78539 17.5755 9.54039C16.9896 9.47143 16.4152 9.32689 15.8665 9.11039C15.6282 9.0162 15.3978 8.90318 15.1775 8.77239ZM5.55146 4.34439L5.61146 4.48639L5.34246 4.74239C5.2415 4.84642 5.1199 4.92817 4.98546 4.98239C4.90924 5.00953 4.82756 5.01776 4.74746 5.00639C4.69064 5.0012 4.63532 4.98525 4.58446 4.95939C4.57988 4.93091 4.57988 4.90187 4.58446 4.87339C4.62646 4.53339 4.75546 4.33839 4.86246 4.24339C4.91873 4.19424 4.98534 4.15839 5.05735 4.13848C5.12936 4.11857 5.20493 4.11513 5.27846 4.12839C5.38846 4.14139 5.42846 4.16939 5.44446 4.18139C5.49325 4.22587 5.53005 4.28193 5.55146 4.34439ZM25.0665 15.0524L23.5055 13.0494L5.42446 18.1364L6.12046 27.1794L14.6355 24.7834L14.2575 19.8624L15.1175 19.6204L15.4995 24.5404L19.9235 23.2954L19.5415 18.3754L20.4115 18.1304L20.7915 23.0514L25.0255 21.8604L24.9795 21.2604L26.3815 20.8664L26.4315 21.4654L37.4245 18.3724L37.1155 14.2484L34.2645 15.0504L33.8815 10.1304L26.2125 12.2894L25.0675 15.0534L25.0665 15.0524ZM8.96946 20.7664L8.79146 18.4044L6.66446 19.0034L7.17746 25.6664L9.30446 25.0674L9.11946 22.6114L11.0835 22.0584L11.2695 24.5154L13.3955 23.9164L12.8825 17.2534L10.7555 17.8524L10.9345 20.2134L8.96946 20.7664ZM16.5555 23.0274L16.1735 18.1074L14.3265 18.6274L14.1965 16.8844L20.0165 15.2464L20.1465 16.9894L18.3005 17.5094L18.6825 22.4294L16.5555 23.0274ZM25.1665 19.9924L23.5545 17.9954L23.7855 20.9934L21.8485 21.5384L21.3355 14.8754L23.0655 14.3894L25.3785 17.3564L27.0755 13.2604L28.8865 12.7514L29.4175 19.4094L27.4805 19.9544L27.2305 16.9224L26.1045 19.7284L25.1665 19.9924ZM32.8255 11.6424L33.2085 16.5624L36.0555 15.7624L36.1855 17.5044L31.2115 18.9044L30.6985 12.2414L32.8255 11.6424Z" fill="white"/>
</svg>
