<svg width="28" height="28" viewBox="0 0 28 28" fill="none" xmlns="http://www.w3.org/2000/svg">
<path fill-rule="evenodd" clip-rule="evenodd" d="M11.7999 17.5655C15.6889 20.7515 21.4359 20.5295 25.0659 16.8995C28.9319 13.0335 28.9319 6.7655 25.0659 2.8995C21.1999 -0.9665 14.9319 -0.9665 11.0659 2.8995C7.43586 6.5295 7.21386 12.2765 10.3999 16.1655L8.07886 18.4865C7.74302 18.3965 7.38942 18.3966 7.0536 18.4866C6.71779 18.5767 6.41161 18.7536 6.16586 18.9995L0.565857 24.5995C0.20073 24.9721 -0.00260941 25.4737 2.52878e-05 25.9954C0.00265999 26.517 0.211056 27.0166 0.579928 27.3854C0.9488 27.7543 1.44834 27.9627 1.97 27.9653C2.49166 27.968 2.99328 27.7646 3.36586 27.3995L8.96586 21.7995C9.2118 21.5537 9.38868 21.2476 9.47874 20.9118C9.56879 20.5759 9.56883 20.2223 9.47886 19.8865L11.8009 17.5645L11.7999 17.5655ZM12.5399 15.4255C13.2645 16.1557 14.1263 16.7356 15.0756 17.132C16.025 17.5284 17.0432 17.7334 18.072 17.7354C19.1007 17.7373 20.1198 17.5361 21.0706 17.1433C22.0214 16.7505 22.8853 16.1739 23.6128 15.4464C24.3402 14.719 24.9169 13.8551 25.3097 12.9042C25.7025 11.9534 25.9037 10.9344 25.9017 9.90562C25.8998 8.87685 25.6947 7.8586 25.2984 6.90926C24.902 5.95992 24.3221 5.09819 23.5919 4.3735C22.1244 2.91706 20.1395 2.1015 18.072 2.10541C16.0044 2.10931 14.0227 2.93238 12.5607 4.39435C11.0987 5.85633 10.2757 7.83807 10.2718 9.90562C10.2679 11.9732 11.0834 13.958 12.5399 15.4255Z" fill="white"/>
</svg>
