<svg width="74" height="74" viewBox="0 0 74 74" fill="none" xmlns="http://www.w3.org/2000/svg">
<path d="M43.818 49.4361C45.5754 51.1934 48.4246 51.1934 50.182 49.4361C51.9393 47.6787 51.9393 44.8295 50.182 43.0721C48.4246 41.3148 45.5754 41.3148 43.818 43.0721C42.0607 44.8295 42.0607 47.6787 43.818 49.4361Z" stroke="white" stroke-width="2"/>
<path d="M42.4851 30.1107C43.8604 32.1808 46.6534 32.744 48.7235 31.3686C50.7935 29.9933 51.3567 27.2003 49.9814 25.1302C48.606 23.0602 45.813 22.497 43.7429 23.8723C41.6729 25.2477 41.1097 28.0407 42.4851 30.1107Z" stroke="white" stroke-width="2"/>
<path d="M45.8452 47.0004C46.2315 47.5818 47.0161 47.74 47.5975 47.3537C48.179 46.9674 48.3371 46.1828 47.9508 45.6014C47.5645 45.0199 46.78 44.8618 46.1985 45.2481C45.6171 45.6344 45.4589 46.4189 45.8452 47.0004Z" fill="white" stroke="white" stroke-width="2"/>
<path d="M23.818 40.7979C25.5754 42.5553 28.4246 42.5553 30.182 40.7979C31.9393 39.0405 31.9393 36.1913 30.182 34.4339C28.4246 32.6766 25.5754 32.6766 23.818 34.4339C22.0607 36.1913 22.0607 39.0405 23.818 40.7979Z" stroke="white" stroke-width="2"/>
<path d="M31.455 39.5251L41 43.9801M41 43.9801L39.09 40.7981M41 43.9801L37.818 44.6161M41.988 29.3611L31.996 33.8391M31.996 33.8391L34 30.3471M31.996 33.8391L35.74 34.5941" stroke="white" stroke-width="2"/>
</svg>
