<svg width="23" height="22" viewBox="0 0 23 22" fill="none" xmlns="http://www.w3.org/2000/svg">
<g clip-path="url(#clip0_42_1090)">
<path fill-rule="evenodd" clip-rule="evenodd" d="M13.73 1.81299C13.5091 1.4153 13.1858 1.08392 12.7937 0.853204C12.4016 0.622487 11.9549 0.500824 11.5 0.500824C11.0451 0.500824 10.5984 0.622487 10.2063 0.853204C9.81419 1.08392 9.49092 1.4153 9.26999 1.81299L0.348992 17.563C-0.642008 19.313 0.596992 21.5 2.57899 21.5H20.421C22.403 21.5 23.642 19.312 22.651 17.562L13.731 1.81199L13.73 1.81299ZM12.47 14.745H10.53L10.047 6.99999H12.953L12.469 14.746L12.47 14.745ZM13 17.458C13 18.305 12.375 19 11.5 19C10.625 19 9.99999 18.305 9.99999 17.458C9.99999 16.593 10.625 15.949 11.5 15.949C12.375 15.949 13 16.593 13 17.458Z" fill="#FF6B0A"/>
</g>
<defs>
<clipPath id="clip0_42_1090">
<rect width="23" height="22" fill="white"/>
</clipPath>
</defs>
</svg>
